<svg width="52" height="70" fill="none" xmlns="http://www.w3.org/2000/svg"><path d="M8.472 0H.388A.388.388 0 000 .388v68.351c0 .214.174.388.388.388h8.084a.388.388 0 00.388-.388V.388A.388.388 0 008.472 0zm21.706 35.679H18.165a.389.389 0 00-.388.389v2.453a.389.389 0 00.388.39h3.156a.388.388 0 01.388.387v26.276a.328.328 0 01-.328.327h-3.297a.328.328 0 00-.328.328v2.585a.328.328 0 00.328.327h12.094a.389.389 0 00.389-.387V36.066a.389.389 0 00-.389-.387zm0-35.679H18.154a.389.389 0 00-.388.389v2.176a.389.389 0 00.388.389h3.167a.387.387 0 01.39.388v23.41a.388.388 0 00.387.388h8.081a.387.387 0 00.389-.388V.389a.389.389 0 00-.39-.389zm20.894 0H39.043a.389.389 0 00-.389.389v26.363a.389.389 0 00.39.388h8.08a.388.388 0 00.388-.388V3.342a.388.388 0 01.388-.388h3.167a.389.389 0 00.388-.389V.39a.389.389 0 00-.383-.39zm0 66.174h-3.167a.388.388 0 01-.388-.388V35.873a.387.387 0 00-.387-.39h-8.082a.388.388 0 00-.388.39v32.87a.387.387 0 00.388.388h12.024a.388.388 0 00.389-.388v-2.18a.389.389 0 00-.39-.39z" fill="#EEAF99"/></svg>