<svg width="236" height="74" fill="none" xmlns="http://www.w3.org/2000/svg"><path d="M80.168 53h.72l-3.482-8.993h-.719L73.193 53h.72l.873-2.287h4.509L80.168 53zm-5.125-2.93l2.004-5.228 2.004 5.229h-4.008zm12.717-6.063h-4.92V53h.68v-8.35h4.24v-.643zm2.738 8.35v-3.57h4.111v-.643H90.5V44.65h4.431v-.643h-5.113V53h5.178v-.642h-4.497zm12.721-8.35v4.047h-5.228v-4.047h-.681V53h.68v-4.304h5.229V53h.681v-8.993h-.681zm9.077 0h-6.346v.643h2.826V53h.694v-8.35h2.826v-.643zM118 53.141c1.683 0 3.147-.873 3.88-2.197l-.604-.346c-.591 1.13-1.85 1.888-3.276 1.888-2.364 0-3.995-1.773-3.995-3.982 0-2.21 1.631-3.983 3.995-3.983 1.413 0 2.659.745 3.25 1.85l.604-.347c-.745-1.31-2.197-2.158-3.854-2.158-2.736 0-4.676 2.068-4.676 4.638 0 2.569 1.94 4.637 4.676 4.637zm11.526-9.134h-6.346v.643h2.826V53h.694v-8.35h2.826v-.643zm6.848 4.33a2.193 2.193 0 001.156-1.966 2.365 2.365 0 00-2.363-2.364h-3.585V53h3.88a2.445 2.445 0 002.454-2.454c0-1.027-.643-1.862-1.542-2.21zm-1.207-3.688c.925 0 1.682.771 1.682 1.722 0 .95-.757 1.721-1.682 1.721h-2.904V44.65h2.904zm.295 7.709h-3.199v-3.623h3.199c.976 0 1.773.81 1.773 1.811 0 1.002-.797 1.812-1.773 1.812zm8.891.783a4.61 4.61 0 004.637-4.637 4.61 4.61 0 00-4.637-4.638 4.611 4.611 0 00-4.638 4.638 4.611 4.611 0 004.638 4.637zm0-.655c-2.223 0-3.957-1.773-3.957-3.982 0-2.21 1.734-3.983 3.957-3.983 2.222 0 3.956 1.773 3.956 3.983s-1.734 3.982-3.956 3.982zm-64.326 7.521v4.047H74.8v-4.047h-.681V69h.68v-4.304h5.23V69h.68v-8.993h-.68zm4.234 8.35v-3.57h4.11v-.643h-4.11v-3.495h4.432v-.642H83.58V69h5.177v-.642h-4.496zm13.119 0v-8.35h-5.55v5.126c0 1.747-.424 2.66-.925 3.225h-.72v2.364h.694V69h6.758v1.722h.694v-2.364h-.951zm-4.87-3.211V60.65h4.19v7.708h-4.985c.437-.617.797-1.568.797-3.212zm12.866-.81a2.193 2.193 0 001.156-1.965 2.366 2.366 0 00-2.364-2.364h-3.584V69h3.88a2.445 2.445 0 002.454-2.454c0-1.028-.643-1.863-1.542-2.21zm-1.208-3.686c.925 0 1.683.77 1.683 1.721 0 .95-.758 1.721-1.683 1.721h-2.903V60.65h2.903zm.296 7.708h-3.199v-3.623h3.199c.976 0 1.773.81 1.773 1.811 0 1.002-.797 1.812-1.773 1.812zM115.14 69h.681v-8.993h-.604l-5.305 7.734v-7.734h-.681V69h.591l5.318-7.734V69zm12.918 0l-4.085-4.625 3.957-4.368h-.81l-3.828 4.201v-4.2h-.694v4.2l-3.828-4.2h-.81l3.957 4.367L117.832 69h.809l3.957-4.458V69h.694v-4.458L127.249 69h.809zm7.926 0h.681v-8.993h-.604l-5.306 7.734v-7.734h-.681V69h.591l5.319-7.734V69zm11.684-8.993h-.86l-3.212 5.319-3.212-5.319h-.848V69h.681v-7.99l3.328 5.523h.115l3.327-5.524V69h.681v-8.993zm6.997 9.134a4.611 4.611 0 004.638-4.637 4.611 4.611 0 00-4.638-4.638 4.61 4.61 0 00-4.637 4.638 4.61 4.61 0 004.637 4.637zm0-.655c-2.222 0-3.957-1.773-3.957-3.982 0-2.21 1.735-3.983 3.957-3.983 2.223 0 3.957 1.773 3.957 3.983s-1.734 3.982-3.957 3.982zm11.169.655c1.683 0 3.148-.873 3.88-2.197l-.604-.346c-.591 1.13-1.85 1.888-3.276 1.888-2.363 0-3.995-1.773-3.995-3.982 0-2.21 1.632-3.983 3.995-3.983 1.414 0 2.66.745 3.251 1.85l.603-.347c-.745-1.31-2.196-2.158-3.854-2.158-2.736 0-4.676 2.068-4.676 4.638 0 2.569 1.94 4.637 4.676 4.637zm11.527-9.134h-6.347v.643h2.827V69h.693v-8.35h2.827v-.643zM185.326 69h.681v-8.993h-.604l-5.305 7.734v-7.734h-.681V69h.591l5.318-7.734V69z" fill="url(#paint0_linear_403_5440)"/><path d="M89.625 19.82h5.005v.35h-.175c-.187 0-.35.07-.49.21-.14.117-.257.268-.35.455a4.542 4.542 0 00-.245.595c-.047.21-.07.397-.07.56v9.38c-.42.163-.898.303-1.435.42-.537.117-1.097.21-1.68.28-.583.093-1.178.163-1.785.21-.607.047-1.167.07-1.68.07-2.1 0-3.932-.35-5.495-1.05-1.563-.7-2.858-1.61-3.885-2.73a11.61 11.61 0 01-2.31-3.85 13.146 13.146 0 01-.735-4.305c0-1.447.245-2.882.735-4.305a11.231 11.231 0 012.31-3.815c1.05-1.12 2.357-2.018 3.92-2.695 1.587-.7 3.465-1.05 5.635-1.05.817 0 1.575.07 2.275.21.7.14 1.318.268 1.855.385.303.07.56.14.77.21.233.047.432.07.595.07h.315v3.71h-.35c-.14-.723-.42-1.307-.84-1.75a4 4 0 00-1.4-1.015 6.002 6.002 0 00-1.715-.455 10.44 10.44 0 00-1.645-.14c-1.75 0-3.267.315-4.55.945-1.283.607-2.333 1.4-3.15 2.38a9.833 9.833 0 00-1.82 3.325 11.654 11.654 0 00-.595 3.64c0 1.353.257 2.695.77 4.025a11.743 11.743 0 002.17 3.535 11.344 11.344 0 003.36 2.52c1.33.63 2.8.945 4.41.945.443 0 .992-.047 1.645-.14a6.118 6.118 0 001.96-.735V21.99c0-.163-.023-.35-.07-.56a1.889 1.889 0 00-.245-.595 1.392 1.392 0 00-.35-.455.672.672 0 00-.49-.21h-.175v-.35zm19.748-11.27c1.82 0 3.453.327 4.9.98 1.447.63 2.672 1.493 3.675 2.59a10.87 10.87 0 012.345 3.78c.56 1.423.84 2.917.84 4.48 0 1.75-.327 3.36-.98 4.83a11.115 11.115 0 01-2.625 3.78 12.613 12.613 0 01-3.92 2.485c-1.47.583-3.045.875-4.725.875-1.797 0-3.418-.327-4.865-.98-1.423-.653-2.637-1.517-3.64-2.59a11.607 11.607 0 01-2.275-3.71 12.12 12.12 0 01-.805-4.375c0-1.493.268-2.963.805-4.41a11.934 11.934 0 012.345-3.92c1.05-1.143 2.322-2.065 3.815-2.765 1.493-.7 3.197-1.05 5.11-1.05zm-.035 22.575c1.563-.07 2.928-.42 4.095-1.05 1.19-.653 2.182-1.47 2.975-2.45a10.182 10.182 0 001.75-3.29 11.12 11.12 0 00.595-3.535c0-1.283-.233-2.578-.7-3.885a11.748 11.748 0 00-1.995-3.535 10.108 10.108 0 00-3.115-2.59c-1.19-.677-2.532-1.015-4.025-1.015-1.447 0-2.742.327-3.885.98a9.946 9.946 0 00-2.94 2.45 11.166 11.166 0 00-1.82 3.36c-.42 1.237-.63 2.45-.63 3.64 0 1.283.245 2.578.735 3.885a12.493 12.493 0 002.03 3.5 10.642 10.642 0 003.045 2.555c1.19.653 2.485.98 3.885.98zM135.999 8.55c1.82 0 3.453.327 4.9.98 1.447.63 2.672 1.493 3.675 2.59a10.87 10.87 0 012.345 3.78c.56 1.423.84 2.917.84 4.48 0 1.75-.327 3.36-.98 4.83a11.115 11.115 0 01-2.625 3.78 12.613 12.613 0 01-3.92 2.485c-1.47.583-3.045.875-4.725.875-1.797 0-3.418-.327-4.865-.98-1.423-.653-2.637-1.517-3.64-2.59a11.613 11.613 0 01-2.275-3.71 12.112 12.112 0 01-.805-4.375c0-1.493.268-2.963.805-4.41a11.934 11.934 0 012.345-3.92c1.05-1.143 2.322-2.065 3.815-2.765 1.493-.7 3.197-1.05 5.11-1.05zm-.035 22.575c1.563-.07 2.928-.42 4.095-1.05 1.19-.653 2.182-1.47 2.975-2.45a10.182 10.182 0 001.75-3.29 11.12 11.12 0 00.595-3.535c0-1.283-.233-2.578-.7-3.885a11.748 11.748 0 00-1.995-3.535 10.108 10.108 0 00-3.115-2.59c-1.19-.677-2.532-1.015-4.025-1.015-1.447 0-2.742.327-3.885.98a9.946 9.946 0 00-2.94 2.45 11.166 11.166 0 00-1.82 3.36c-.42 1.237-.63 2.45-.63 3.64 0 1.283.245 2.578.735 3.885a12.493 12.493 0 002.03 3.5 10.642 10.642 0 003.045 2.555c1.19.653 2.485.98 3.885.98zm14.831.525h.175c.163 0 .315-.07.455-.21.14-.14.257-.303.35-.49.117-.187.198-.385.245-.595.047-.233.07-.443.07-.63V11.07c0-.163-.023-.35-.07-.56a2.605 2.605 0 00-.21-.595 1.387 1.387 0 00-.35-.455.671.671 0 00-.49-.21h-.175V8.9h6.755c1.843 0 3.5.327 4.97.98 1.47.63 2.707 1.493 3.71 2.59a11.017 11.017 0 012.345 3.71c.537 1.4.805 2.858.805 4.375 0 1.423-.257 2.823-.77 4.2a10.717 10.717 0 01-2.31 3.64c-1.027 1.073-2.31 1.948-3.85 2.625-1.54.653-3.325.98-5.355.98h-6.3v-.35zM167 21.08c0-1.493-.268-2.905-.805-4.235a10.288 10.288 0 00-2.275-3.465 10.52 10.52 0 00-3.43-2.38c-1.307-.583-2.73-.875-4.27-.875h-1.785v20.65h1.855c1.26 0 2.52-.187 3.78-.56a10.867 10.867 0 003.465-1.785 9.326 9.326 0 002.485-3.045c.653-1.213.98-2.648.98-4.305zm9.072 10.57h.175V32h-3.885v-.35h.175c.164 0 .315-.07.455-.21.164-.14.292-.303.385-.49.094-.187.164-.385.21-.595.07-.233.105-.443.105-.63V11.07c0-.163-.023-.35-.07-.56a1.73 1.73 0 00-.175-.595 1.21 1.21 0 00-.385-.455.881.881 0 00-.595-.21h-.175V8.9h3.535l12.705 20.02V11.07a1.8 1.8 0 00-.105-.56 1.866 1.866 0 00-.245-.595 1.387 1.387 0 00-.35-.455.671.671 0 00-.49-.21h-.175V8.9h3.92v.35h-.175c-.186 0-.35.07-.49.21-.14.117-.268.268-.385.455a2.605 2.605 0 00-.21.595c-.046.21-.07.397-.07.56V32h-2.17l-12.67-20.09v17.815c0 .187.024.397.07.63.047.21.117.408.21.595.117.187.245.35.385.49s.304.21.49.21zm18.303 0h.175c.186 0 .35-.058.49-.175.14-.14.256-.303.35-.49.116-.187.198-.385.245-.595.07-.21.105-.408.105-.595V11.07a1.8 1.8 0 00-.105-.56 1.913 1.913 0 00-.245-.595 1.4 1.4 0 00-.35-.455.673.673 0 00-.49-.21h-.175V8.9h13.475v3.255h-.35a2.281 2.281 0 00-.63-1.4c-.374-.42-.957-.63-1.75-.63h-7.035v8.855h5.81c.536 0 .98-.163 1.33-.49.373-.327.56-.712.56-1.155h.35v4.375h-.35c0-.42-.175-.782-.525-1.085-.35-.303-.805-.455-1.365-.455h-5.81v10.605h7.665c.443 0 .828-.105 1.155-.315.326-.21.595-.455.805-.735.233-.303.396-.618.49-.945.116-.35.175-.642.175-.875h.35V32h-14.35v-.35zm23.007-11.235l-4.865-9.1a15.32 15.32 0 00-.42-.63 5.2 5.2 0 00-.455-.7 2.376 2.376 0 00-.56-.525.976.976 0 00-.595-.21V8.9h4.97v.35c-.14 0-.303.093-.49.28-.163.187-.245.42-.245.7 0 .163.047.327.14.49l3.955 7.35 3.605-7c0-.07.035-.14.105-.21l.14-.35a.871.871 0 00.105-.385c0-.373-.128-.607-.385-.7-.257-.117-.42-.175-.49-.175V8.9h3.885v.35c-.397 0-.782.222-1.155.665-.35.42-.63.84-.84 1.26l-4.27 8.155 5.46 10.29a7.787 7.787 0 00.945 1.33c.187.21.373.385.56.525.21.117.42.175.63.175V32h-4.97v-.35c.14 0 .28-.093.42-.28.14-.187.21-.408.21-.665 0-.163-.07-.373-.21-.63l-4.445-8.33-4.375 8.33c-.07.14-.14.303-.21.49-.047.187-.07.362-.07.525 0 .373.175.56.525.56V32h-3.815v-.35c.163 0 .35-.047.56-.14.21-.117.42-.257.63-.42.21-.163.408-.35.595-.56.187-.21.338-.408.455-.595l4.97-9.52z" fill="#fff"/><path d="M8.472 4H.388A.388.388 0 000 4.388v68.351c0 .214.174.388.388.388h8.084a.388.388 0 00.388-.388V4.388A.388.388 0 008.472 4zm21.706 35.679H18.165a.389.389 0 00-.388.389v2.453a.389.389 0 00.388.39h3.156a.388.388 0 01.388.387v26.276a.328.328 0 01-.328.327h-3.297a.328.328 0 00-.328.328v2.585a.328.328 0 00.328.327h12.094a.389.389 0 00.389-.387V40.066a.389.389 0 00-.389-.387zm0-35.679H18.154a.389.389 0 00-.388.389v2.176a.389.389 0 00.388.389h3.167a.387.387 0 01.39.388v23.41a.388.388 0 00.387.388h8.081a.387.387 0 00.389-.388V4.389a.389.389 0 00-.39-.389zm20.894 0H39.043a.389.389 0 00-.389.389v26.363a.389.389 0 00.39.388h8.08a.388.388 0 00.388-.388V7.342a.388.388 0 01.388-.388h3.167a.389.389 0 00.388-.389V4.39a.389.389 0 00-.383-.39zm0 66.174h-3.167a.388.388 0 01-.388-.388V39.873a.387.387 0 00-.387-.39h-8.082a.388.388 0 00-.388.39v32.87a.387.387 0 00.388.388h12.024a.388.388 0 00.389-.388v-2.18a.389.389 0 00-.39-.39z" fill="#EEAF99"/><defs><linearGradient id="paint0_linear_403_5440" x1="148.5" y1="41" x2="148.5" y2="72.821" gradientUnits="userSpaceOnUse"><stop stop-color="#fff"/><stop offset="1" stop-color="#fff" stop-opacity=".22"/></linearGradient></defs></svg>