<svg width="180" height="57" fill="none" xmlns="http://www.w3.org/2000/svg"><path d="M61.386 40.394h.55l-2.665-6.886h-.551l-2.676 6.886h.551l.669-1.75h3.453l.669 1.75zm-3.925-2.243l1.534-4.003 1.535 4.003h-3.07zm9.737-4.643h-3.767v6.886h.521V34h3.246v-.492zm2.097 6.394v-2.735h3.148v-.491h-3.148V34h3.394v-.492h-3.915v6.886h3.964v-.492h-3.443zm9.74-6.394v3.099h-4.003v-3.099h-.521v6.886h.521v-3.295h4.004v3.295h.521v-6.886h-.521zm6.95 0h-4.859V34h2.164v6.394h.532V34h2.164v-.492zm4.368 6.994c1.289 0 2.41-.669 2.971-1.682l-.462-.266c-.453.866-1.417 1.447-2.509 1.447-1.81 0-3.059-1.358-3.059-3.05 0-1.692 1.25-3.05 3.06-3.05 1.081 0 2.036.571 2.488 1.417l.462-.265c-.57-1.004-1.682-1.653-2.95-1.653-2.096 0-3.581 1.584-3.581 3.551 0 1.968 1.485 3.551 3.58 3.551zm8.826-6.994h-4.86V34h2.165v6.394h.531V34h2.164v-.492zm5.244 3.315a1.68 1.68 0 00.885-1.505c0-.993-.807-1.81-1.81-1.81h-2.745v6.886h2.971a1.872 1.872 0 001.879-1.879c0-.787-.492-1.426-1.18-1.692zM103.498 34c.708 0 1.289.59 1.289 1.318 0 .728-.581 1.318-1.289 1.318h-2.223V34h2.223zm.226 5.902h-2.449v-2.774h2.449c.748 0 1.358.62 1.358 1.387s-.61 1.387-1.358 1.387zm6.808.6a3.53 3.53 0 003.551-3.55 3.53 3.53 0 00-3.551-3.552 3.53 3.53 0 00-3.551 3.551 3.53 3.53 0 003.551 3.551zm0-.501c-1.702 0-3.03-1.358-3.03-3.05 0-1.692 1.328-3.05 3.03-3.05 1.702 0 3.03 1.358 3.03 3.05 0 1.692-1.328 3.05-3.03 3.05zm-49.255 5.507v3.099h-4.003v-3.099h-.522v6.886h.522v-3.295h4.003v3.295h.522v-6.886h-.522zm3.242 6.394v-2.735h3.148v-.491h-3.148V46h3.394v-.492h-3.915v6.886h3.964v-.492h-3.443zm10.045 0v-6.394h-4.25v3.925c0 1.338-.324 2.036-.707 2.47h-.551v1.81h.53v-1.319h5.175v1.318h.531v-1.81h-.728zm-3.728-2.459V46h3.207v5.902h-3.817c.335-.472.61-1.2.61-2.459zm9.851-.62a1.68 1.68 0 00.886-1.505c0-.993-.807-1.81-1.81-1.81h-2.745v6.886h2.97a1.872 1.872 0 001.88-1.879c0-.787-.492-1.426-1.18-1.692zM79.763 46c.708 0 1.288.59 1.288 1.318 0 .728-.58 1.318-1.288 1.318h-2.224V46h2.224zm.226 5.902h-2.45v-2.774h2.45c.747 0 1.357.62 1.357 1.387s-.61 1.387-1.357 1.387zm8.175.492h.521v-6.886h-.462L84.16 51.43v-5.922h-.521v6.886h.452l4.073-5.922v5.922zm9.891 0l-3.128-3.541 3.03-3.345h-.62l-2.931 3.217v-3.217h-.532v3.217l-2.931-3.217h-.62l3.03 3.345-3.128 3.541h.62l3.03-3.413v3.413h.53v-3.413l3.03 3.413h.62zm6.069 0h.521v-6.886h-.462l-4.063 5.922v-5.922h-.521v6.886h.452l4.073-5.922v5.922zm8.947-6.886h-.659l-2.46 4.073-2.459-4.073h-.649v6.886h.521v-6.118l2.548 4.23h.089l2.547-4.23v6.118h.522v-6.886zm5.357 6.994a3.53 3.53 0 003.551-3.55 3.53 3.53 0 00-3.551-3.552 3.53 3.53 0 00-3.551 3.551 3.53 3.53 0 003.551 3.551zm0-.501c-1.702 0-3.03-1.358-3.03-3.05 0-1.692 1.328-3.05 3.03-3.05 1.702 0 3.03 1.358 3.03 3.05 0 1.692-1.328 3.05-3.03 3.05zm8.553.501c1.288 0 2.41-.669 2.97-1.682l-.462-.266c-.453.866-1.417 1.447-2.508 1.447-1.81 0-3.06-1.358-3.06-3.05 0-1.692 1.25-3.05 3.06-3.05 1.082 0 2.036.571 2.488 1.417l.463-.265c-.571-1.004-1.682-1.653-2.951-1.653-2.096 0-3.581 1.584-3.581 3.551 0 1.968 1.485 3.551 3.581 3.551zm8.825-6.994h-4.859V46h2.164v6.394h.531V46h2.164v-.492zm6.1 6.886h.521v-6.886h-.462l-4.063 5.922v-5.922h-.521v6.886h.452l4.073-5.922v5.922z" fill="url(#paint0_linear_194_3987)"/><path d="M68.626 15.674h3.833v.268h-.134a.514.514 0 00-.375.16c-.108.09-.197.206-.268.349a3.467 3.467 0 00-.188.456 1.97 1.97 0 00-.053.428v7.183a7.344 7.344 0 01-1.1.321c-.41.09-.84.161-1.286.215-.446.071-.902.125-1.367.16-.464.036-.893.054-1.286.054-1.608 0-3.01-.268-4.208-.804-1.197-.536-2.188-1.233-2.974-2.09a8.89 8.89 0 01-1.769-2.948 10.067 10.067 0 01-.563-3.297c0-1.107.188-2.206.563-3.296a8.6 8.6 0 011.769-2.921c.804-.858 1.804-1.546 3.001-2.064 1.215-.536 2.654-.804 4.315-.804.625 0 1.206.054 1.742.161.536.107 1.01.205 1.42.295.233.053.43.107.59.16.179.036.33.054.456.054h.24v2.84h-.267c-.107-.553-.322-1-.643-1.34a3.063 3.063 0 00-1.072-.776 4.595 4.595 0 00-1.313-.349 7.994 7.994 0 00-1.26-.107c-1.34 0-2.501.241-3.484.724-.983.464-1.787 1.072-2.412 1.822s-1.09 1.6-1.394 2.546a8.922 8.922 0 00-.455 2.787 8.5 8.5 0 00.59 3.082 8.99 8.99 0 001.661 2.707 8.685 8.685 0 002.573 1.93c1.018.482 2.144.723 3.377.723.339 0 .759-.036 1.26-.107.5-.09 1-.277 1.5-.563v-6.298c0-.125-.018-.268-.054-.428a1.448 1.448 0 00-.187-.456 1.066 1.066 0 00-.268-.349.514.514 0 00-.376-.16h-.134v-.268zm15.122-8.63c1.393 0 2.644.25 3.752.75 1.107.483 2.045 1.144 2.814 1.984a8.322 8.322 0 011.795 2.894 9.285 9.285 0 01.643 3.43c0 1.34-.25 2.573-.75 3.699a8.511 8.511 0 01-2.01 2.894 9.653 9.653 0 01-3.002 1.903 9.718 9.718 0 01-3.618.67c-1.375 0-2.617-.25-3.725-.75a8.778 8.778 0 01-2.787-1.984 8.888 8.888 0 01-1.742-2.84 9.281 9.281 0 01-.616-3.35c0-1.144.205-2.27.616-3.377a9.136 9.136 0 011.796-3.002 9.239 9.239 0 012.92-2.117c1.144-.536 2.449-.804 3.914-.804zM83.72 24.33c1.197-.054 2.242-.322 3.135-.804a7.586 7.586 0 002.278-1.876 7.796 7.796 0 001.34-2.52 8.52 8.52 0 00.456-2.706 8.81 8.81 0 00-.536-2.975 8.986 8.986 0 00-1.528-2.707 7.742 7.742 0 00-2.385-1.983c-.911-.518-1.938-.777-3.082-.777-1.108 0-2.1.25-2.975.75a7.61 7.61 0 00-2.25 1.877 8.545 8.545 0 00-1.394 2.572 8.635 8.635 0 00-.483 2.788c0 .982.188 1.974.563 2.974a9.559 9.559 0 001.555 2.68 8.154 8.154 0 002.331 1.957c.911.5 1.903.75 2.975.75zm20.414-17.286c1.394 0 2.645.25 3.752.75 1.108.483 2.046 1.144 2.814 1.984a8.327 8.327 0 011.796 2.894 9.281 9.281 0 01.643 3.43c0 1.34-.25 2.573-.75 3.699a8.528 8.528 0 01-2.01 2.894 9.654 9.654 0 01-3.002 1.903 9.721 9.721 0 01-3.618.67c-1.376 0-2.617-.25-3.725-.75a8.778 8.778 0 01-2.787-1.984 8.888 8.888 0 01-1.742-2.84 9.281 9.281 0 01-.617-3.35c0-1.144.206-2.27.617-3.377A9.136 9.136 0 0197.3 9.965a9.235 9.235 0 012.922-2.117c1.143-.536 2.447-.804 3.912-.804zm-.026 17.286c1.197-.054 2.242-.322 3.135-.804a7.583 7.583 0 002.278-1.876 7.789 7.789 0 001.34-2.52 8.515 8.515 0 00.456-2.706 8.81 8.81 0 00-.536-2.975 9.002 9.002 0 00-1.528-2.707 7.74 7.74 0 00-2.385-1.983c-.911-.518-1.939-.777-3.082-.777-1.108 0-2.099.25-2.975.75a7.61 7.61 0 00-2.251 1.877 8.545 8.545 0 00-1.394 2.572 8.635 8.635 0 00-.482 2.788c0 .982.188 1.974.563 2.974a9.559 9.559 0 001.554 2.68 8.146 8.146 0 002.332 1.957c.911.5 1.903.75 2.975.75zm11.356.402h.134a.485.485 0 00.348-.16c.107-.108.197-.233.268-.376.089-.143.152-.295.188-.456.035-.178.053-.34.053-.482V8.974a2.05 2.05 0 00-.053-.429 2.005 2.005 0 00-.161-.456 1.076 1.076 0 00-.268-.348.513.513 0 00-.375-.16h-.134v-.269h5.172c1.411 0 2.68.25 3.806.75 1.125.483 2.072 1.144 2.84 1.984a8.44 8.44 0 011.796 2.84 9.278 9.278 0 01.616 3.35 9.14 9.14 0 01-.589 3.216 8.215 8.215 0 01-1.769 2.788c-.786.822-1.769 1.492-2.948 2.01-1.179.5-2.546.75-4.1.75h-4.824v-.268zm12.408-8.093a8.601 8.601 0 00-.616-3.243 7.88 7.88 0 00-1.742-2.654 8.054 8.054 0 00-2.627-1.822c-1-.447-2.09-.67-3.269-.67h-1.367v15.812h1.42c.965 0 1.93-.143 2.895-.429a8.318 8.318 0 002.653-1.367 7.153 7.153 0 001.903-2.331c.5-.93.75-2.028.75-3.296zm6.947 8.093h.134V25h-2.975v-.268h.134a.485.485 0 00.348-.16 1.2 1.2 0 00.295-.376 1.96 1.96 0 00.161-.456c.054-.178.08-.34.08-.482V8.974c0-.125-.017-.268-.053-.429a1.356 1.356 0 00-.134-.456.94.94 0 00-.295-.348.677.677 0 00-.456-.16h-.134v-.269h2.707l9.728 15.33V8.974c0-.125-.026-.268-.08-.429a1.438 1.438 0 00-.188-.456 1.049 1.049 0 00-.268-.348.513.513 0 00-.375-.16h-.134v-.269h3.002v.268h-.134a.513.513 0 00-.375.161 1.42 1.42 0 00-.295.348 1.958 1.958 0 00-.161.456c-.036.16-.054.304-.054.429V25h-1.661l-9.702-15.383v13.641c0 .143.018.304.054.482.036.161.089.313.161.456.089.143.187.268.295.375a.514.514 0 00.375.161zm14.014 0h.134a.567.567 0 00.375-.134c.108-.107.197-.232.268-.375.09-.143.152-.295.188-.456.054-.16.08-.313.08-.455V8.974c0-.125-.026-.268-.08-.429a1.438 1.438 0 00-.188-.456 1.049 1.049 0 00-.268-.348.513.513 0 00-.375-.16h-.134v-.269h10.318v2.493h-.268a1.744 1.744 0 00-.482-1.072c-.286-.322-.733-.483-1.34-.483h-5.387v6.78h4.449c.411 0 .75-.125 1.018-.375.286-.25.429-.545.429-.884h.268v3.35h-.268c0-.322-.134-.599-.402-.83-.268-.233-.617-.35-1.045-.35h-4.449v8.121h5.869c.34 0 .634-.08.884-.241.251-.161.456-.349.617-.563.178-.232.304-.473.375-.724.089-.268.134-.49.134-.67h.268V25h-10.988v-.268zm17.617-8.603l-3.725-6.968c-.09-.143-.197-.303-.322-.482a3.944 3.944 0 00-.348-.536 1.82 1.82 0 00-.429-.402.747.747 0 00-.456-.16v-.269h3.806v.268c-.107 0-.232.072-.375.215a.785.785 0 00-.081.91l3.029 5.629 2.76-5.36c0-.054.027-.107.081-.161l.107-.268a.674.674 0 00.08-.295c0-.286-.098-.464-.295-.536-.196-.09-.321-.134-.375-.134v-.268h2.975v.268c-.304 0-.599.17-.884.51a5.05 5.05 0 00-.644.964l-3.269 6.245 4.181 7.879a5.77 5.77 0 00.723 1.018c.143.16.286.295.429.402a.98.98 0 00.482.134V25h-3.805v-.268c.107 0 .214-.072.321-.214a.82.82 0 00.161-.51c0-.125-.053-.285-.161-.482l-3.403-6.378-3.35 6.378a3.935 3.935 0 00-.161.375 1.65 1.65 0 00-.054.402c0 .286.134.429.402.429V25h-2.921v-.268c.125 0 .268-.036.429-.107a3.693 3.693 0 00.938-.75 3.42 3.42 0 00.348-.456l3.806-7.29z" fill="#fff"/><path d="M6.487 3.063H.297A.297.297 0 000 3.36v52.337c0 .164.133.297.297.297h6.19a.297.297 0 00.297-.297V3.36a.297.297 0 00-.297-.297zm16.62 27.319H13.91a.298.298 0 00-.297.297v1.88a.298.298 0 00.297.297h2.417a.297.297 0 01.297.297v20.12a.25.25 0 01-.251.25h-2.525a.25.25 0 00-.251.251v1.98a.251.251 0 00.25.25h9.261a.298.298 0 00.298-.296v-25.03a.297.297 0 00-.298-.296zm0-27.319h-9.206a.298.298 0 00-.298.297v1.667a.297.297 0 00.298.297h2.425a.297.297 0 01.298.297v17.926a.297.297 0 00.296.297h6.188a.296.296 0 00.298-.297V3.36a.298.298 0 00-.299-.297zm15.999 0h-9.21a.298.298 0 00-.298.297v20.187a.296.296 0 00.297.297h6.188a.297.297 0 00.297-.297V5.62a.297.297 0 01.297-.297h2.425a.298.298 0 00.298-.297V3.36a.298.298 0 00-.294-.297zm0 50.669h-2.425a.297.297 0 01-.297-.296V30.53a.296.296 0 00-.297-.298H29.9a.298.298 0 00-.298.298V55.7a.296.296 0 00.298.297h9.206a.296.296 0 00.298-.297v-1.67a.298.298 0 00-.298-.298z" fill="#EEAF99"/><defs><linearGradient id="paint0_linear_194_3987" x1="113.707" y1="31.394" x2="113.707" y2="55.759" gradientUnits="userSpaceOnUse"><stop stop-color="#fff"/><stop offset="1" stop-color="#fff" stop-opacity=".22"/></linearGradient></defs></svg>