<svg width="1048" height="1497" fill="none" xmlns="http://www.w3.org/2000/svg"><path d="M183.402 0H8.392A8.392 8.392 0 000 8.392V1488.04c0 4.63 3.757 8.39 8.392 8.39h175.01c4.634 0 8.392-3.76 8.392-8.39V8.392A8.393 8.393 0 00183.402 0zM653.28 772.358H393.236a8.414 8.414 0 00-8.416 8.416v53.12a8.415 8.415 0 008.416 8.416h68.321a8.394 8.394 0 018.392 8.392v568.808c0 1.88-.747 3.69-2.077 5.02a7.085 7.085 0 01-5.015 2.07h-71.394c-1.881 0-3.684.75-5.014 2.08a7.106 7.106 0 00-2.078 5.02v55.95c0 1.88.748 3.69 2.078 5.02a7.083 7.083 0 005.014 2.07H653.28a8.42 8.42 0 005.942-2.45 8.437 8.437 0 002.474-5.94v-707.6a8.42 8.42 0 00-8.416-8.392zM653.279 0h-260.28a8.416 8.416 0 00-8.416 8.416v47.115a8.413 8.413 0 008.416 8.416h68.557a8.395 8.395 0 018.416 8.392v506.778a8.39 8.39 0 008.392 8.392h174.938a8.384 8.384 0 005.95-2.45 8.398 8.398 0 002.466-5.942V8.416a8.405 8.405 0 00-2.473-5.96A8.423 8.423 0 00653.279 0zm452.311 0H845.188a8.416 8.416 0 00-8.416 8.416v570.701a8.398 8.398 0 002.466 5.942 8.384 8.384 0 005.95 2.45h174.942c2.22 0 4.36-.884 5.93-2.458a8.41 8.41 0 002.46-5.934V72.339c0-2.225.88-4.36 2.46-5.934a8.368 8.368 0 015.93-2.458h68.56a8.404 8.404 0 008.41-8.416V8.416c0-2.212-.87-4.335-2.42-5.91A8.403 8.403 0 001105.59 0zm-.01 1432.5h-68.55c-2.23 0-4.36-.88-5.94-2.45a8.427 8.427 0 01-2.46-5.94V776.556a8.271 8.271 0 00-.63-3.219 8.508 8.508 0 00-1.81-2.73 8.424 8.424 0 00-5.95-2.467H845.304a8.419 8.419 0 00-8.416 8.416v711.574a8.366 8.366 0 002.467 5.94 8.375 8.375 0 005.949 2.45h260.276a8.375 8.375 0 005.95-2.45c.79-.78 1.41-1.7 1.83-2.72.42-1.02.64-2.12.64-3.22v-47.21c0-2.23-.89-4.37-2.46-5.95a8.424 8.424 0 00-5.96-2.47z" opacity=".2" fill="#000"/></svg>