<svg width="1918" height="1586" fill="none" xmlns="http://www.w3.org/2000/svg"><g opacity=".4"><mask id="mask0_76_3977" style="mask-type:alpha" maskUnits="userSpaceOnUse" x="0" y="-27" width="1920" height="1637"><path fill="#181829" d="M0-27h1920v1637H0z"/></mask><g opacity=".2" stroke="#fff" mask="url(#mask0_76_3977)"><path d="M82.86-56.5h65.045a2.619 2.619 0 012.619 2.62v549.935a2.619 2.619 0 01-2.619 2.619H82.86a2.62 2.62 0 01-2.62-2.619V-53.881a2.62 2.62 0 012.62-2.619zm0 627.563h65.045a2.619 2.619 0 012.619 2.619v549.938c0 1.44-1.172 2.62-2.619 2.62H82.86a2.624 2.624 0 01-2.62-2.62V573.682a2.62 2.62 0 012.62-2.619zm0 627.567h65.045a2.617 2.617 0 012.619 2.62v549.93c0 1.45-1.172 2.62-2.619 2.62H82.86a2.618 2.618 0 01-2.62-2.62v-549.93c0-1.45 1.174-2.62 2.62-2.62zM565.601-56.5h65.045a2.62 2.62 0 012.619 2.62v549.935a2.62 2.62 0 01-2.619 2.619h-65.045a2.619 2.619 0 01-2.619-2.619V-53.881a2.619 2.619 0 012.619-2.619zm0 627.563h65.045a2.62 2.62 0 012.619 2.619v549.938c0 1.44-1.173 2.62-2.619 2.62h-65.045a2.624 2.624 0 01-2.619-2.62V573.682a2.619 2.619 0 012.619-2.619zm0 627.567h65.045a2.618 2.618 0 012.619 2.62v549.93c0 1.45-1.173 2.62-2.619 2.62h-65.045a2.617 2.617 0 01-2.619-2.62v-549.93c0-1.45 1.172-2.62 2.619-2.62zM1048.34-56.5h65.05c1.44 0 2.62 1.173 2.62 2.62v549.935a2.624 2.624 0 01-2.62 2.619h-65.05a2.624 2.624 0 01-2.62-2.619V-53.881a2.624 2.624 0 012.62-2.619zm0 627.563h65.05c1.44 0 2.62 1.173 2.62 2.619v549.938c0 1.44-1.18 2.62-2.62 2.62h-65.05c-1.44 0-2.62-1.18-2.62-2.62V573.682a2.624 2.624 0 012.62-2.619zm0 627.567h65.05c1.44 0 2.62 1.17 2.62 2.62v549.93c0 1.45-1.18 2.62-2.62 2.62h-65.05c-1.44 0-2.62-1.17-2.62-2.62v-549.93c0-1.45 1.18-2.62 2.62-2.62zM1531.08-56.5h65.05c1.44 0 2.62 1.173 2.62 2.62v549.935a2.624 2.624 0 01-2.62 2.619h-65.05a2.624 2.624 0 01-2.62-2.619V-53.881a2.624 2.624 0 012.62-2.619zm0 627.563h65.05c1.44 0 2.62 1.173 2.62 2.619v549.938c0 1.44-1.18 2.62-2.62 2.62h-65.05c-1.44 0-2.62-1.18-2.62-2.62V573.682a2.624 2.624 0 012.62-2.619zm0 627.567h65.05c1.44 0 2.62 1.17 2.62 2.62v549.93c0 1.45-1.18 2.62-2.62 2.62h-65.05c-1.44 0-2.62-1.17-2.62-2.62v-549.93c0-1.45 1.18-2.62 2.62-2.62zM225.894 230.56h96.649a2.626 2.626 0 012.628 2.62v262.989a2.63 2.63 0 01-.772 1.854l.353.354-.353-.354a2.63 2.63 0 01-1.856.767h-97.308a2.136 2.136 0 01-2.136-2.136v-20.797a2.135 2.135 0 012.136-2.136h26.534a3.133 3.133 0 003.136-3.136V259.177a3.62 3.62 0 00-3.619-3.619h-25.392a2.629 2.629 0 01-2.628-2.628v-19.743a2.629 2.629 0 012.628-2.627zm0 627.563h96.649a2.626 2.626 0 012.628 2.62v262.987c-.002.7-.28 1.36-.772 1.86l.353.35-.353-.35c-.493.49-1.16.76-1.856.76h-97.308c-.567 0-1.11-.22-1.511-.62-.4-.4-.625-.95-.625-1.51v-20.8a2.144 2.144 0 012.136-2.14h26.534c.832 0 1.63-.33 2.218-.91.588-.59.918-1.39.918-2.22V886.74a3.62 3.62 0 00-3.619-3.619h-25.392a2.629 2.629 0 01-2.628-2.628V860.75a2.629 2.629 0 012.628-2.627zm0 627.567h96.649c.696 0 1.363.27 1.856.76.492.49.77 1.16.772 1.86v262.99a2.63 2.63 0 01-.772 1.85l.353.35-.353-.35c-.493.49-1.16.77-1.856.77h-97.308a2.144 2.144 0 01-2.136-2.14v-20.8c0-.56.225-1.11.625-1.51.401-.4.944-.62 1.511-.62h26.534c.832 0 1.63-.33 2.218-.92.588-.59.918-1.39.918-2.22V1514.3c0-.96-.381-1.88-1.06-2.56a3.654 3.654 0 00-2.559-1.06h-25.392c-.697 0-1.366-.27-1.858-.76-.493-.5-.77-1.17-.77-1.86v-19.75c0-.69.277-1.36.77-1.85.492-.5 1.161-.77 1.858-.77zM708.635 230.56h96.649a2.626 2.626 0 012.628 2.62v262.989a2.63 2.63 0 01-.772 1.854l.353.354-.353-.354a2.63 2.63 0 01-1.856.767h-97.308a2.136 2.136 0 01-2.136-2.136v-20.797a2.135 2.135 0 012.136-2.136h26.534a3.133 3.133 0 003.136-3.136V259.177a3.62 3.62 0 00-3.619-3.619h-25.392a2.633 2.633 0 01-1.859-.769 2.633 2.633 0 01-.769-1.859v-19.743a2.629 2.629 0 012.628-2.627zm0 627.563h96.649a2.626 2.626 0 012.628 2.62v262.987c-.002.7-.28 1.36-.772 1.86l.353.35-.353-.35c-.493.49-1.16.76-1.856.76h-97.308c-.567 0-1.11-.22-1.511-.62-.4-.4-.625-.95-.625-1.51v-20.8a2.144 2.144 0 012.136-2.14h26.534c.832 0 1.63-.33 2.218-.91.588-.59.918-1.39.918-2.22V886.74a3.62 3.62 0 00-3.619-3.619h-25.392a2.633 2.633 0 01-1.859-.769 2.633 2.633 0 01-.769-1.859V860.75a2.629 2.629 0 012.628-2.627zm0 627.567h96.649c.696 0 1.363.27 1.856.76.492.49.77 1.16.772 1.86v262.99a2.63 2.63 0 01-.772 1.85l.353.35-.353-.35c-.493.49-1.16.77-1.856.77h-97.308a2.144 2.144 0 01-2.136-2.14v-20.8c0-.56.225-1.11.625-1.51.401-.4.944-.62 1.511-.62h26.534c.832 0 1.63-.33 2.218-.92.588-.59.918-1.39.918-2.22V1514.3c0-.96-.381-1.88-1.06-2.56a3.654 3.654 0 00-2.559-1.06h-25.392c-.697 0-1.366-.27-1.859-.76a2.66 2.66 0 01-.769-1.86v-19.75c0-.69.277-1.36.769-1.85a2.6 2.6 0 011.859-.77zM1191.38 230.56h96.64a2.623 2.623 0 012.63 2.62v262.989c0 .696-.28 1.363-.77 1.854l.35.354-.35-.354c-.49.491-1.16.767-1.86.767h-97.3c-.57 0-1.11-.225-1.51-.626-.4-.4-.63-.943-.63-1.51v-20.797c0-.567.23-1.11.63-1.51.4-.401.94-.626 1.51-.626h26.53c.83 0 1.63-.33 2.22-.919.59-.588.92-1.385.92-2.217V259.177a3.615 3.615 0 00-3.62-3.619h-25.39c-.7 0-1.37-.277-1.86-.769a2.6 2.6 0 01-.77-1.859v-19.743a2.6 2.6 0 01.77-1.858 2.62 2.62 0 011.86-.769zm0 627.563h96.64a2.623 2.623 0 012.63 2.62v262.987c0 .7-.28 1.36-.77 1.86l.35.35-.35-.35c-.49.49-1.16.76-1.86.76h-97.3c-.57 0-1.11-.22-1.51-.62-.4-.4-.63-.95-.63-1.51v-20.8c0-.57.23-1.11.63-1.51.4-.4.94-.63 1.51-.63h26.53c.83 0 1.63-.33 2.22-.91.59-.59.92-1.39.92-2.22V886.74a3.615 3.615 0 00-3.62-3.619h-25.39c-.7 0-1.37-.277-1.86-.769a2.6 2.6 0 01-.77-1.859V860.75a2.6 2.6 0 01.77-1.858 2.62 2.62 0 011.86-.769zm0 627.567h96.64c.7 0 1.37.27 1.86.76s.77 1.16.77 1.86v262.99c0 .69-.28 1.36-.77 1.85l.35.35-.35-.35c-.49.49-1.16.77-1.86.77h-97.3c-.57 0-1.11-.23-1.51-.63-.4-.4-.63-.94-.63-1.51v-20.8c0-.56.23-1.11.63-1.51.4-.4.94-.62 1.51-.62h26.53a3.142 3.142 0 003.14-3.14V1514.3c0-.96-.38-1.88-1.06-2.56a3.66 3.66 0 00-2.56-1.06h-25.39c-.7 0-1.37-.27-1.86-.76-.5-.5-.77-1.17-.77-1.86v-19.75c0-.69.27-1.36.77-1.85.49-.5 1.16-.77 1.86-.77zm482.74-1255.13h96.65a2.626 2.626 0 012.62 2.62v262.989c0 .696-.28 1.363-.77 1.854l.35.354-.35-.354c-.49.491-1.16.767-1.85.767h-97.31c-.57 0-1.11-.225-1.51-.626-.4-.4-.63-.943-.63-1.51v-20.797c0-.567.23-1.11.63-1.51.4-.401.94-.626 1.51-.626h26.53c.83 0 1.63-.33 2.22-.919.59-.588.92-1.385.92-2.217V259.177a3.615 3.615 0 00-3.62-3.619h-25.39a2.625 2.625 0 01-2.63-2.628v-19.743c0-.696.28-1.365.77-1.858a2.62 2.62 0 011.86-.769zm0 627.563h96.65a2.626 2.626 0 012.62 2.62v262.987c0 .7-.28 1.36-.77 1.86l.35.35-.35-.35c-.49.49-1.16.76-1.85.76h-97.31c-.57 0-1.11-.22-1.51-.62-.4-.4-.63-.95-.63-1.51v-20.8c0-.57.23-1.11.63-1.51.4-.4.94-.63 1.51-.63h26.53c.83 0 1.63-.33 2.22-.91.59-.59.92-1.39.92-2.22V886.74a3.615 3.615 0 00-3.62-3.619h-25.39a2.625 2.625 0 01-2.63-2.628V860.75c0-.696.28-1.365.77-1.858a2.62 2.62 0 011.86-.769zm0 627.567h96.65c.69 0 1.36.27 1.85.76s.77 1.16.77 1.86v262.99c0 .69-.28 1.36-.77 1.85l.35.35-.35-.35c-.49.49-1.16.77-1.85.77h-97.31c-.57 0-1.11-.23-1.51-.63-.4-.4-.63-.94-.63-1.51v-20.8c0-.56.23-1.11.63-1.51.4-.4.94-.62 1.51-.62h26.53a3.142 3.142 0 003.14-3.14V1514.3c0-.96-.38-1.88-1.06-2.56a3.66 3.66 0 00-2.56-1.06h-25.39c-.7 0-1.37-.27-1.86-.76a2.67 2.67 0 01-.77-1.86v-19.75c0-.69.28-1.36.77-1.85.49-.5 1.16-.77 1.86-.77zM322.543-56.5h.001a2.628 2.628 0 012.635 2.628v212.11a2.618 2.618 0 01-2.626 2.619h-65.02a2.615 2.615 0 01-1.852-.767l-.354.354a3.118 3.118 0 01-.913-2.206V-30.114a3.122 3.122 0 00-3.128-3.12v-.499h-25.481a2.628 2.628 0 01-2.628-2.628v-17.511a2.628 2.628 0 012.628-2.628h96.738zm0 627.563h.001a2.621 2.621 0 011.863.767 2.627 2.627 0 01.772 1.861v212.11a2.618 2.618 0 01-2.626 2.619h-65.02a2.615 2.615 0 01-1.852-.767l-.354.354a3.118 3.118 0 01-.913-2.206V597.449a3.11 3.11 0 00-.917-2.209 3.136 3.136 0 00-2.211-.91v-.5h-25.481a2.627 2.627 0 01-2.628-2.628v-17.511a2.627 2.627 0 012.628-2.628h96.738zm0 627.567h.001c.346 0 .688.06 1.008.19.32.14.61.33.855.57.245.25.439.54.572.86.132.32.2.66.2 1v212.11c0 .35-.068.69-.2 1.01a2.56 2.56 0 01-.569.85 2.66 2.66 0 01-.853.57c-.318.13-.66.19-1.004.19h-65.02c-.695 0-1.361-.27-1.852-.76l-.354.35a3.133 3.133 0 01-.913-2.21v-188.35c0-.41-.081-.81-.239-1.19a3.144 3.144 0 00-.678-1.02 3.013 3.013 0 00-1.015-.67 3.074 3.074 0 00-1.196-.24v-.5h-25.481c-.697 0-1.365-.27-1.858-.77a2.616 2.616 0 01-.77-1.85v-17.52c0-.69.277-1.36.77-1.85.493-.5 1.161-.77 1.858-.77h96.738zM805.284-56.5h.001a2.628 2.628 0 012.635 2.628v212.11a2.618 2.618 0 01-2.626 2.619h-65.02a2.615 2.615 0 01-1.852-.767l-.354.354a3.118 3.118 0 01-.913-2.206V-30.114c0-.41-.081-.816-.239-1.195a3.106 3.106 0 00-1.693-1.69 3.117 3.117 0 00-1.196-.234v-.5h-25.481a2.628 2.628 0 01-2.628-2.628v-17.511a2.628 2.628 0 012.628-2.628h96.738zm0 627.563h.001a2.621 2.621 0 011.863.767 2.627 2.627 0 01.772 1.861v212.11a2.618 2.618 0 01-2.626 2.619h-65.02a2.615 2.615 0 01-1.852-.767l-.354.354a3.118 3.118 0 01-.913-2.206V597.449a3.11 3.11 0 00-.917-2.209 3.136 3.136 0 00-2.211-.91v-.5h-25.481a2.627 2.627 0 01-2.628-2.628v-17.511a2.627 2.627 0 012.628-2.628h96.738zm0 627.567h.001c.346 0 .688.06 1.008.19.32.14.61.33.855.57.245.25.439.54.572.86.132.32.2.66.2 1v212.11c0 .35-.068.69-.2 1.01a2.56 2.56 0 01-.569.85 2.66 2.66 0 01-.853.57c-.318.13-.66.19-1.004.19h-65.02c-.695 0-1.361-.27-1.852-.76l-.354.35a3.133 3.133 0 01-.913-2.21v-188.35c0-.41-.081-.81-.239-1.19a3.128 3.128 0 00-.678-1.02 3.013 3.013 0 00-1.015-.67 3.074 3.074 0 00-1.196-.24v-.5h-25.481c-.697 0-1.365-.27-1.858-.77a2.616 2.616 0 01-.77-1.85v-17.52c0-.69.277-1.36.77-1.85.493-.5 1.161-.77 1.858-.77h96.738zM1288.02-56.5h.01c.34-.001.68.066 1 .198.32.132.61.325.86.57a2.639 2.639 0 01.77 1.86v212.11c0 .345-.07.686-.2 1.004a2.49 2.49 0 01-.57.851c-.24.243-.53.436-.85.567-.32.131-.66.198-1.01.197h0-65.02c-.69 0-1.36-.275-1.85-.767l-.35.354a3.094 3.094 0 01-.91-2.206V-30.114c0-.41-.09-.816-.24-1.195a3.128 3.128 0 00-2.89-1.923v-.501h0s0 0 0 0h-25.48c-.7 0-1.37-.277-1.86-.77a2.64 2.64 0 01-.77-1.858v-17.511c0-.697.28-1.365.77-1.858.49-.493 1.16-.77 1.86-.77h96.73zm0 627.563h.01c.34-.001.68.066 1 .198.32.132.61.325.86.569.24.244.44.534.57.854.13.319.2.661.2 1.007v212.11c0 .345-.07.686-.2 1.004a2.49 2.49 0 01-.57.851c-.24.243-.53.436-.85.567-.32.131-.66.198-1.01.197h0-65.02c-.69 0-1.36-.275-1.85-.767l-.35.354a3.094 3.094 0 01-.91-2.206V597.449c0-.41-.09-.817-.24-1.196a3.18 3.18 0 00-.68-1.013 3.136 3.136 0 00-2.21-.91v-.5h0s0 0 0 0h-25.48c-.7 0-1.37-.277-1.86-.77a2.64 2.64 0 01-.77-1.858v-17.511c0-.697.28-1.365.77-1.858.49-.493 1.16-.77 1.86-.77h96.73zm0 627.567h.01c.34 0 .68.06 1 .19.32.14.61.33.86.57a2.663 2.663 0 01.77 1.86v212.11c0 .35-.07.69-.2 1.01-.13.32-.32.61-.57.85-.24.24-.53.44-.85.57-.32.13-.66.19-1.01.19h0-65.02c-.69 0-1.36-.27-1.85-.76l-.35.35c-.59-.59-.91-1.38-.91-2.21v-188.35c0-.41-.09-.81-.24-1.19-.16-.38-.39-.73-.68-1.02-.29-.29-.64-.52-1.02-.67-.38-.16-.78-.24-1.19-.24v-.5h0s0 0 0 0h-25.48c-.7 0-1.37-.27-1.86-.77-.49-.49-.77-1.16-.77-1.85v-17.52c0-.69.28-1.36.77-1.85.49-.5 1.16-.77 1.86-.77h96.73zM1770.77-56.5h0c.34-.001.69.066 1 .198a2.597 2.597 0 011.43 1.423c.13.319.2.661.2 1.007v212.11c0 .345-.07.686-.2 1.004a2.49 2.49 0 01-.57.851 2.621 2.621 0 01-1.85.764h-65.02c-.7 0-1.37-.275-1.86-.767l-.35.354a3.094 3.094 0 01-.91-2.206V-30.114c0-.41-.08-.816-.24-1.195a3.128 3.128 0 00-1.7-1.689 3.055 3.055 0 00-1.19-.235v-.5h0s0 0 0 0h-25.48c-.7 0-1.37-.277-1.86-.77a2.64 2.64 0 01-.77-1.858v-17.511c0-.697.28-1.365.77-1.858.49-.493 1.16-.77 1.86-.77h96.74zm0 627.563h0c.34-.001.69.066 1 .198a2.603 2.603 0 011.43 1.423c.13.319.2.661.2 1.007v212.11c0 .345-.07.686-.2 1.004a2.49 2.49 0 01-.57.851 2.621 2.621 0 01-1.85.764h-65.02c-.7 0-1.37-.275-1.86-.767l-.35.354a3.094 3.094 0 01-.91-2.206V597.449c0-.41-.08-.817-.24-1.196a3.18 3.18 0 00-.68-1.013 3.136 3.136 0 00-2.21-.91v-.5h0s0 0 0 0h-25.48c-.7 0-1.37-.277-1.86-.77a2.64 2.64 0 01-.77-1.858v-17.511c0-.697.28-1.365.77-1.858.49-.493 1.16-.77 1.86-.77h96.74zm0 627.567h0c.34 0 .69.06 1 .19.32.14.62.33.86.57a2.663 2.663 0 01.77 1.86v212.11c0 .35-.07.69-.2 1.01-.13.32-.32.61-.57.85-.24.24-.53.44-.85.57-.32.13-.66.19-1 .19h-65.02c-.7 0-1.37-.27-1.86-.76l-.35.35c-.59-.59-.91-1.38-.91-2.21v-188.35c0-.41-.08-.81-.24-1.19-.16-.38-.39-.73-.68-1.02-.29-.29-.64-.52-1.02-.67-.37-.16-.78-.24-1.19-.24v-.5h0s0 0 0 0h-25.48c-.7 0-1.37-.27-1.86-.77-.49-.49-.77-1.16-.77-1.85v-17.52c0-.69.28-1.36.77-1.85.49-.5 1.16-.77 1.86-.77h96.74zM-88.872 160.857h-.001a2.622 2.622 0 01-2.427-1.615 2.616 2.616 0 01-.2-1.004v-212.11a2.628 2.628 0 012.628-2.628H7.906a2.628 2.628 0 012.587 2.628v17.511a2.628 2.628 0 01-2.628 2.628h-25.48a3.619 3.619 0 00-3.62 3.62v188.351a2.618 2.618 0 01-2.618 2.619h-65.019zm0 627.563h-.001a2.622 2.622 0 01-2.427-1.615 2.616 2.616 0 01-.2-1.004v-212.11a2.628 2.628 0 012.628-2.628H7.906a2.63 2.63 0 012.587 2.628v17.511a2.628 2.628 0 01-2.628 2.628h-25.48a3.618 3.618 0 00-3.62 3.619v188.352a2.618 2.618 0 01-2.618 2.619h-65.019zm0 627.56h-.001c-.345 0-.686-.06-1.005-.19a2.661 2.661 0 01-.852-.57 2.564 2.564 0 01-.57-.85c-.132-.32-.2-.66-.2-1.01v-212.11c0-.69.277-1.36.77-1.85.493-.5 1.161-.77 1.858-.77H7.906a2.627 2.627 0 012.587 2.62v17.52c0 .69-.277 1.36-.77 1.85-.492.5-1.16.77-1.858.77h-25.48a3.623 3.623 0 00-3.62 3.62v188.35c0 .7-.275 1.37-.766 1.86s-1.158.76-1.852.76h-65.019zM393.869 160.857h-.001a2.624 2.624 0 01-2.427-1.615 2.618 2.618 0 01-.2-1.004v-212.11a2.628 2.628 0 012.628-2.628h96.778a2.628 2.628 0 012.587 2.628v17.511a2.63 2.63 0 01-2.628 2.628h-25.48a3.62 3.62 0 00-3.619 3.62v188.351a2.619 2.619 0 01-2.619 2.619h-65.019zm0 627.563h-.001a2.624 2.624 0 01-2.427-1.615 2.618 2.618 0 01-.2-1.004v-212.11a2.627 2.627 0 012.628-2.628h96.778a2.63 2.63 0 012.587 2.628v17.511a2.63 2.63 0 01-2.628 2.628h-25.48a3.618 3.618 0 00-3.619 3.619v188.352a2.619 2.619 0 01-2.619 2.619h-65.019zm0 627.56h-.001c-.345 0-.686-.06-1.005-.19a2.667 2.667 0 01-.852-.57 2.564 2.564 0 01-.57-.85c-.132-.32-.2-.66-.2-1.01v-212.11c0-.69.277-1.36.77-1.85.493-.5 1.161-.77 1.858-.77h96.778c.689.01 1.347.29 1.831.78.485.49.756 1.15.756 1.84v17.52c0 .69-.277 1.36-.769 1.85a2.6 2.6 0 01-1.859.77h-25.48a3.622 3.622 0 00-3.619 3.62v188.35c0 .7-.276 1.37-.767 1.86s-1.158.76-1.852.76h-65.019zM876.61 160.857h-.002a2.619 2.619 0 01-2.626-2.619v-212.11a2.628 2.628 0 012.628-2.628h96.777a2.627 2.627 0 012.588 2.628v17.511a2.628 2.628 0 01-2.628 2.628h-25.48a3.617 3.617 0 00-3.619 3.62v188.351a2.619 2.619 0 01-2.619 2.619H876.61zm0 627.563h-.002a2.619 2.619 0 01-2.626-2.619v-212.11a2.627 2.627 0 012.628-2.628h96.777a2.629 2.629 0 012.588 2.628v17.511a2.627 2.627 0 01-2.628 2.628h-25.48a3.616 3.616 0 00-3.619 3.619v188.352a2.619 2.619 0 01-2.619 2.619H876.61zm0 627.56h-.002a2.65 2.65 0 01-1.004-.19 2.656 2.656 0 01-1.422-1.42c-.132-.32-.2-.66-.2-1.01v-212.11c0-.69.277-1.36.77-1.85.492-.5 1.161-.77 1.858-.77h96.777a2.626 2.626 0 012.588 2.62v17.52c0 .69-.277 1.36-.77 1.85-.493.5-1.161.77-1.858.77h-25.48a3.622 3.622 0 00-3.619 3.62v188.35c0 .7-.276 1.37-.767 1.86a2.62 2.62 0 01-1.852.76H876.61zm482.74-1255.123h0c-.35.001-.69-.066-1.01-.197-.31-.131-.6-.324-.85-.567a2.64 2.64 0 01-.57-.851c-.13-.318-.2-.659-.2-1.004v-212.11c0-.697.28-1.365.77-1.858a2.64 2.64 0 011.86-.77h96.78c.69.01 1.35.292 1.83.783.48.491.76 1.154.76 1.845v17.511a2.64 2.64 0 01-.77 1.858c-.5.493-1.17.77-1.86.77h-25.48a3.623 3.623 0 00-3.62 3.62v188.351a2.626 2.626 0 01-2.62 2.619h-65.02zm0 627.563h0c-.35.001-.69-.066-1.01-.197-.31-.131-.6-.324-.85-.567a2.64 2.64 0 01-.57-.851c-.13-.318-.2-.659-.2-1.004v-212.11c0-.697.28-1.365.77-1.858.5-.493 1.16-.77 1.86-.77h96.78c.69.011 1.35.292 1.83.783.48.491.76 1.154.76 1.845v17.511a2.64 2.64 0 01-.77 1.858c-.5.493-1.17.77-1.86.77h-25.48a3.622 3.622 0 00-3.62 3.619v188.352a2.626 2.626 0 01-2.62 2.619h-65.02zm0 627.56h0c-.35 0-.69-.06-1.01-.19-.31-.13-.6-.33-.85-.57-.24-.24-.44-.53-.57-.85-.13-.32-.2-.66-.2-1.01v-212.11a2.628 2.628 0 012.63-2.62h96.78c.69.01 1.35.29 1.83.78.48.49.76 1.15.76 1.84v17.52a2.628 2.628 0 01-2.63 2.62h-25.48a3.618 3.618 0 00-3.62 3.62v188.35c0 .7-.28 1.37-.77 1.86s-1.16.76-1.85.76h-65.02zm482.74-1255.123h0c-.34.001-.69-.066-1-.197a2.704 2.704 0 01-.86-.567 2.813 2.813 0 01-.57-.851c-.13-.318-.2-.659-.2-1.004v-212.11c0-.697.28-1.365.77-1.858a2.64 2.64 0 011.86-.77h96.78c.69.01 1.35.292 1.83.783.49.491.76 1.154.76 1.845v17.511a2.64 2.64 0 01-.77 1.858c-.5.493-1.16.77-1.86.77h-25.48a3.623 3.623 0 00-3.62 3.62v188.351a2.626 2.626 0 01-2.62 2.619h-65.02zm0 627.563h0c-.34.001-.69-.066-1-.197a2.704 2.704 0 01-.86-.567 2.813 2.813 0 01-.57-.851c-.13-.318-.2-.659-.2-1.004v-212.11c0-.697.28-1.365.77-1.858.5-.493 1.16-.77 1.86-.77h96.78c.69.011 1.35.292 1.83.783.49.491.76 1.154.76 1.845v17.511a2.64 2.64 0 01-.77 1.858c-.5.493-1.16.77-1.86.77h-25.48a3.622 3.622 0 00-3.62 3.619v188.352a2.626 2.626 0 01-2.62 2.619h-65.02zm0 627.56h0c-.34 0-.69-.06-1-.19-.32-.13-.61-.33-.86-.57a2.76 2.76 0 01-.57-.85c-.13-.32-.2-.66-.2-1.01v-212.11a2.628 2.628 0 012.63-2.62h96.78c.69.01 1.35.29 1.83.78.49.49.76 1.15.76 1.84v17.52a2.628 2.628 0 01-2.63 2.62h-25.48a3.618 3.618 0 00-3.62 3.62v188.35c0 .7-.28 1.37-.77 1.86s-1.15.76-1.85.76h-65.02zM-21.19 231.619v240.676a3.619 3.619 0 003.618 3.619h25.48a2.628 2.628 0 012.628 2.628v17.546a2.616 2.616 0 01-.77 1.855l.354.354-.353-.354a2.62 2.62 0 01-1.857.764h-96.74a2.622 2.622 0 01-1.857-.764l-.353.354.353-.354a2.61 2.61 0 01-.77-1.855V231.62a2.627 2.627 0 012.628-2.628h65.019a2.62 2.62 0 012.62 2.627zm0 627.563v240.678a3.623 3.623 0 003.618 3.62h25.48c.698 0 1.366.27 1.859.77.493.49.77 1.16.77 1.86v17.54c0 .35-.069.69-.2 1.01-.133.31-.326.6-.57.85l.353.35-.353-.35a2.663 2.663 0 01-1.857.76h-96.74a2.663 2.663 0 01-1.857-.76l-.353.35.353-.35a2.786 2.786 0 01-.57-.85c-.132-.32-.2-.66-.2-1.01V859.183a2.627 2.627 0 012.628-2.628h65.019a2.62 2.62 0 012.62 2.627zm0 627.558v240.68a3.623 3.623 0 003.618 3.62h25.48c.698 0 1.366.28 1.859.77.493.49.77 1.16.77 1.86v17.54c0 .35-.069.69-.2 1.01-.133.32-.326.61-.57.85l.353.35-.353-.35c-.244.24-.534.44-.852.57-.319.13-.66.19-1.005.19h-96.74c-.345 0-.686-.06-1.005-.19a2.661 2.661 0 01-.852-.57l-.353.35.353-.35a2.564 2.564 0 01-.57-.85c-.132-.32-.2-.66-.2-1.01v-264.46c0-.7.277-1.37.77-1.86a2.64 2.64 0 011.858-.77h65.019c.345 0 .686.07 1.004.2.318.13.607.32.85.57a2.618 2.618 0 01.765 1.85zM461.55 231.619v240.676a3.618 3.618 0 003.619 3.619h25.481a2.627 2.627 0 012.627 2.628v17.546a2.618 2.618 0 01-.769 1.855l.353.354-.353-.354a2.626 2.626 0 01-1.857.764h-96.74a2.624 2.624 0 01-1.857-.764l-.353.354.353-.354a2.61 2.61 0 01-.77-1.855V231.62a2.627 2.627 0 012.628-2.628h65.019a2.618 2.618 0 012.619 2.627zm0 627.563v240.678a3.622 3.622 0 003.619 3.62h25.481c.697 0 1.365.27 1.858.77.493.49.769 1.16.769 1.86v17.54c0 .35-.068.69-.2 1.01-.132.31-.325.6-.569.85l.353.35-.353-.35a2.665 2.665 0 01-1.857.76h-96.74a2.665 2.665 0 01-1.857-.76l-.353.35.353-.35a2.785 2.785 0 01-.57-.85c-.132-.32-.2-.66-.2-1.01V859.183a2.627 2.627 0 012.628-2.628h65.019a2.618 2.618 0 012.619 2.627zm0 627.558v240.68a3.622 3.622 0 003.619 3.62h25.481c.697 0 1.365.28 1.858.77.493.49.769 1.16.769 1.86v17.54c0 .35-.068.69-.2 1.01a2.56 2.56 0 01-.569.85l.353.35-.353-.35c-.244.24-.534.44-.852.57-.319.13-.66.19-1.005.19h-96.74c-.345 0-.686-.06-1.005-.19a2.667 2.667 0 01-.852-.57l-.353.35.353-.35a2.564 2.564 0 01-.57-.85c-.132-.32-.2-.66-.2-1.01v-264.46c0-.7.277-1.37.77-1.86a2.64 2.64 0 011.858-.77h65.019c.345 0 .686.07 1.004.2.318.13.607.32.851.57a2.621 2.621 0 01.764 1.85zM944.291 231.619v240.676a3.618 3.618 0 003.619 3.619h25.48a2.625 2.625 0 012.628 2.628v17.546a2.618 2.618 0 01-.77 1.855l.353.354-.353-.354a2.615 2.615 0 01-1.856.764h-96.741a2.619 2.619 0 01-1.856-.764l-.353.354.353-.354a2.61 2.61 0 01-.77-1.855V231.62a2.627 2.627 0 012.628-2.628h65.019a2.626 2.626 0 011.854.77 2.6 2.6 0 01.567.852c.132.319.199.66.198 1.005zm0 627.563v240.678a3.622 3.622 0 003.619 3.62h25.48c.697 0 1.366.27 1.858.77.493.49.77 1.16.77 1.86v17.54c0 .35-.068.69-.2 1.01-.132.31-.326.6-.57.85l.353.35-.353-.35a2.66 2.66 0 01-1.856.76h-96.741a2.66 2.66 0 01-1.856-.76l-.353.35.353-.35a2.785 2.785 0 01-.57-.85c-.132-.32-.2-.66-.2-1.01V859.183a2.627 2.627 0 012.628-2.628h65.019a2.626 2.626 0 011.854.77 2.6 2.6 0 01.567.852c.132.319.199.66.198 1.005zm0 627.558v240.68a3.622 3.622 0 003.619 3.62h25.48c.697 0 1.366.28 1.858.77.493.49.77 1.16.77 1.86v17.54c0 .35-.068.69-.2 1.01-.132.32-.326.61-.57.85l.353.35-.353-.35c-.244.24-.533.44-.852.57-.318.13-.66.19-1.004.19h-96.741a2.65 2.65 0 01-1.004-.19 2.656 2.656 0 01-.852-.57l-.353.35.353-.35a2.564 2.564 0 01-.57-.85c-.132-.32-.2-.66-.2-1.01v-264.46c0-.7.277-1.37.77-1.86a2.638 2.638 0 011.858-.77h65.019c.344 0 .685.07 1.004.2.318.13.607.32.85.57.244.24.436.53.567.85.132.32.199.66.198 1zM1427.03 231.619v240.676a3.622 3.622 0 003.62 3.619h25.48c.7 0 1.37.277 1.86.77s.77 1.161.77 1.858v17.546c0 .345-.07.686-.2 1.004a2.64 2.64 0 01-.57.851l.35.354-.35-.354c-.24.243-.53.436-.85.567-.32.131-.66.198-1.01.197h0-96.74 0a2.621 2.621 0 01-1.85-.764l-.36.354.36-.354a2.49 2.49 0 01-.57-.851c-.14-.318-.2-.659-.2-1.004V231.62c0-.697.27-1.365.77-1.858.49-.493 1.16-.77 1.85-.77h65.02c.35 0 .69.068 1.01.2.32.132.6.326.85.57.24.244.43.533.56.852.14.319.2.66.2 1.005zm0 627.563v240.678a3.618 3.618 0 003.62 3.62h25.48c.7 0 1.37.27 1.86.77.49.49.77 1.16.77 1.86v17.54c0 .35-.07.69-.2 1.01-.13.31-.33.6-.57.85l.35.35-.35-.35a2.675 2.675 0 01-1.86.76h0-96.74 0a2.663 2.663 0 01-1.85-.76l-.36.35.36-.35c-.25-.25-.44-.54-.57-.85-.14-.32-.2-.66-.2-1.01V859.183c0-.697.27-1.365.77-1.858.49-.493 1.16-.77 1.85-.77h65.02c.35 0 .69.068 1.01.2.32.132.6.326.85.57.24.244.43.533.56.852.14.319.2.66.2 1.005zm0 627.558v240.68a3.618 3.618 0 003.62 3.62h25.48c.7 0 1.37.28 1.86.77s.77 1.16.77 1.86v17.54c0 .35-.07.69-.2 1.01-.13.32-.33.61-.57.85l.35.35-.35-.35c-.24.24-.53.44-.85.57-.32.13-.66.19-1.01.19h0-96.74 0c-.34 0-.68-.06-1-.19-.32-.13-.61-.33-.85-.57l-.36.35.36-.35c-.25-.24-.44-.53-.57-.85-.14-.32-.2-.66-.2-1.01v-264.46c0-.7.27-1.37.77-1.86.49-.49 1.16-.77 1.85-.77h65.02c.35 0 .69.07 1.01.2.32.13.6.32.85.57.24.24.43.53.56.85.14.32.2.66.2 1zm482.74-1255.121v240.676a3.622 3.622 0 003.62 3.619h25.48c.7 0 1.37.277 1.86.77s.77 1.161.77 1.858v17.546c0 .345-.07.686-.2 1.004a2.64 2.64 0 01-.57.851l.35.354-.35-.354c-.24.243-.53.436-.85.567-.32.131-.66.198-1.01.197h0-96.74a2.621 2.621 0 01-1.85-.764l-.36.354.36-.354a2.49 2.49 0 01-.57-.851c-.13-.318-.2-.659-.2-1.004V231.62c0-.697.27-1.365.77-1.858.49-.493 1.16-.77 1.86-.77h65.01c.35 0 .69.068 1.01.2.32.132.61.326.85.57.24.244.43.533.57.852.13.319.19.66.19 1.005zm0 627.563v240.678a3.618 3.618 0 003.62 3.62h25.48c.7 0 1.37.27 1.86.77.49.49.77 1.16.77 1.86v17.54c0 .35-.07.69-.2 1.01-.13.31-.33.6-.57.85l.35.35-.35-.35a2.675 2.675 0 01-1.86.76h0-96.74a2.663 2.663 0 01-1.85-.76l-.36.35.36-.35c-.25-.25-.44-.54-.57-.85-.13-.32-.2-.66-.2-1.01V859.183c0-.697.27-1.365.77-1.858.49-.493 1.16-.77 1.86-.77h65.01c.35 0 .69.068 1.01.2.32.132.61.326.85.57.24.244.43.533.57.852.13.319.19.66.19 1.005zm0 627.558v240.68a3.618 3.618 0 003.62 3.62h25.48c.7 0 1.37.28 1.86.77s.77 1.16.77 1.86v17.54c0 .35-.07.69-.2 1.01-.13.32-.33.61-.57.85l.35.35-.35-.35c-.24.24-.53.44-.85.57-.32.13-.66.19-1.01.19h0-96.74c-.34 0-.68-.06-1-.19-.32-.13-.61-.33-.85-.57l-.36.35.36-.35c-.25-.24-.44-.53-.57-.85-.13-.32-.2-.66-.2-1.01v-264.46c0-.7.27-1.37.77-1.86.49-.49 1.16-.77 1.86-.77h65.01c.35 0 .69.07 1.01.2.32.13.61.32.85.57.24.24.43.53.57.85.13.32.19.66.19 1z"/></g></g></svg>