<svg width="399" height="1378" fill="none" xmlns="http://www.w3.org/2000/svg"><path d="M17.616-49.42H31.12c.028 0 .086.026.162.16.07.125.137.312.195.553.115.48.187 1.15.187 1.893v477.812c0 .743-.072 1.412-.187 1.893a2.223 2.223 0 01-.195.553c-.076.134-.134.161-.162.161H17.616c-.027 0-.086-.027-.161-.161a2.219 2.219 0 01-.196-.553c-.114-.481-.186-1.15-.186-1.893V-46.814c0-.743.072-1.412.186-1.892.058-.242.125-.43.196-.554.075-.134.134-.16.161-.16zm0 545.259H31.12c.028 0 .086.027.162.16.07.125.137.313.195.554.115.481.187 1.15.187 1.892v477.813c0 .743-.072 1.412-.187 1.892a2.233 2.233 0 01-.195.554c-.076.134-.134.16-.162.16H17.616c-.027 0-.086-.026-.161-.16a2.228 2.228 0 01-.196-.554c-.114-.48-.186-1.149-.186-1.892V498.445c0-.742.072-1.411.186-1.892.058-.241.125-.429.196-.554.075-.133.134-.16.161-.16zm0 545.261H31.12c.028 0 .086.03.162.16.07.12.137.31.195.55.115.48.187 1.15.187 1.9v477.81c0 .74-.072 1.41-.187 1.89-.058.24-.125.43-.195.55-.076.14-.134.16-.162.16H17.616c-.027 0-.086-.02-.161-.16a2.131 2.131 0 01-.196-.55c-.114-.48-.186-1.15-.186-1.89v-477.81c0-.75.072-1.42.186-1.9.058-.24.125-.43.196-.55.075-.13.134-.16.161-.16zM117.829-49.42h13.503c.028 0 .086.026.162.16.07.125.137.312.195.553.115.48.187 1.15.187 1.893v477.812c0 .743-.072 1.412-.187 1.893a2.265 2.265 0 01-.195.553c-.076.134-.134.161-.162.161h-13.503c-.027 0-.086-.027-.161-.161a2.219 2.219 0 01-.196-.553c-.114-.481-.186-1.15-.186-1.893V-46.814c0-.743.072-1.412.186-1.892.058-.242.125-.43.196-.554.075-.134.134-.16.161-.16zm0 545.259h13.503c.028 0 .086.027.162.16.07.125.137.313.195.554.115.481.187 1.15.187 1.892v477.813c0 .743-.072 1.412-.187 1.892a2.275 2.275 0 01-.195.554c-.076.134-.134.16-.162.16h-13.503c-.027 0-.086-.026-.161-.16a2.229 2.229 0 01-.196-.554c-.114-.48-.186-1.149-.186-1.892V498.445c0-.742.072-1.411.186-1.892.058-.241.125-.429.196-.554.075-.133.134-.16.161-.16zm0 545.261h13.503c.028 0 .086.03.162.16.07.12.137.31.195.55.115.48.187 1.15.187 1.9v477.81c0 .74-.072 1.41-.187 1.89-.058.24-.125.43-.195.55-.076.14-.134.16-.162.16h-13.503c-.027 0-.086-.02-.161-.16a2.131 2.131 0 01-.196-.55c-.114-.48-.186-1.15-.186-1.89v-477.81c0-.75.072-1.42.186-1.9.058-.24.125-.43.196-.55.075-.13.134-.16.161-.16zM218.042-49.42h13.503c.028 0 .087.026.162.16.071.125.138.312.195.553.115.48.187 1.15.187 1.893v477.812c0 .743-.072 1.412-.187 1.893a2.184 2.184 0 01-.195.553c-.075.134-.134.161-.162.161h-13.503c-.027 0-.086-.027-.161-.161a2.184 2.184 0 01-.195-.553c-.115-.481-.187-1.15-.187-1.893V-46.814c0-.743.072-1.412.187-1.892.057-.242.124-.43.195-.554.075-.134.134-.16.161-.16zm0 545.259h13.503c.028 0 .087.027.162.16.071.125.138.313.195.554.115.481.187 1.15.187 1.892v477.813c0 .743-.072 1.412-.187 1.892a2.193 2.193 0 01-.195.554c-.075.134-.134.16-.162.16h-13.503c-.027 0-.086-.026-.161-.16a2.193 2.193 0 01-.195-.554c-.115-.48-.187-1.149-.187-1.892V498.445c0-.742.072-1.411.187-1.892.057-.241.124-.429.195-.554.075-.133.134-.16.161-.16zm0 545.261h13.503c.028 0 .087.03.162.16.071.12.138.31.195.55.115.48.187 1.15.187 1.9v477.81c0 .74-.072 1.41-.187 1.89-.057.24-.124.43-.195.55-.075.14-.134.16-.162.16h-13.503c-.027 0-.086-.02-.161-.16a2.099 2.099 0 01-.195-.55c-.115-.48-.187-1.15-.187-1.89v-477.81c0-.75.072-1.42.187-1.9.057-.24.124-.43.195-.55.075-.13.134-.16.161-.16zM318.255-49.42h13.503c.028 0 .087.026.162.16.071.125.138.312.195.553.115.48.187 1.15.187 1.893v477.812c0 .743-.072 1.412-.187 1.893a2.184 2.184 0 01-.195.553c-.075.134-.134.161-.162.161h-13.503c-.027 0-.086-.027-.161-.161a2.184 2.184 0 01-.195-.553c-.115-.481-.187-1.15-.187-1.893V-46.814c0-.743.072-1.412.187-1.892.057-.242.124-.43.195-.554.075-.134.134-.16.161-.16zm0 545.259h13.503c.028 0 .087.027.162.16.071.125.138.313.195.554.115.481.187 1.15.187 1.892v477.813c0 .743-.072 1.412-.187 1.892a2.193 2.193 0 01-.195.554c-.075.134-.134.16-.162.16h-13.503c-.027 0-.086-.026-.161-.16a2.193 2.193 0 01-.195-.554c-.115-.48-.187-1.149-.187-1.892V498.445c0-.742.072-1.411.187-1.892.057-.241.124-.429.195-.554.075-.133.134-.16.161-.16zm0 545.261h13.503c.028 0 .087.03.162.16.071.12.138.31.195.55.115.48.187 1.15.187 1.9v477.81c0 .74-.072 1.41-.187 1.89-.057.24-.124.43-.195.55-.075.14-.134.16-.162.16h-13.503c-.027 0-.086-.02-.161-.16a2.099 2.099 0 01-.195-.55c-.115-.48-.187-1.15-.187-1.89v-477.81c0-.75.072-1.42.187-1.9.057-.24.124-.43.195-.55.075-.13.134-.16.161-.16zM47.309 199.992h20.064c.025 0 .082.024.158.154.07.122.14.31.2.559.118.498.187 1.179.187 1.893v228.501c0 .714-.069 1.395-.188 1.893a2.16 2.16 0 01-.2.559c-.074.13-.132.155-.157.155h-20.2c-.013 0-.057-.013-.12-.123a1.82 1.82 0 01-.167-.468c-.1-.42-.157-.994-.157-1.596V413.45c0-.603.057-1.177.157-1.596.05-.21.108-.367.167-.468.063-.11.107-.123.12-.123h5.507c.133 0 .231-.107.3-.226.073-.127.136-.305.188-.524.105-.44.163-1.031.163-1.644V225.187c0-.724-.068-1.422-.192-1.94a2.385 2.385 0 00-.221-.616c-.08-.139-.191-.258-.338-.258h-5.27c-.026 0-.083-.024-.159-.155a2.192 2.192 0 01-.2-.561c-.119-.5-.187-1.182-.187-1.898v-17.153c0-.716.068-1.398.188-1.898.06-.25.128-.438.2-.561.075-.131.132-.155.158-.155zm0 545.26h20.064c.025 0 .082.025.158.155.07.122.14.309.2.559.118.498.187 1.178.187 1.893V976.36c0 .714-.069 1.395-.188 1.892-.06.25-.129.437-.2.56-.074.13-.132.154-.157.154h-20.2c-.013 0-.057-.013-.12-.122a1.845 1.845 0 01-.167-.469c-.1-.419-.157-.993-.157-1.595v-18.07c0-.602.057-1.176.157-1.595a1.83 1.83 0 01.167-.469c.063-.109.107-.122.12-.122h5.507c.133 0 .231-.108.3-.227.073-.126.136-.305.188-.524.105-.44.163-1.031.163-1.643V770.448c0-.725-.068-1.422-.192-1.941a2.376 2.376 0 00-.221-.615c-.08-.14-.191-.258-.338-.258h-5.27c-.026 0-.083-.025-.159-.155a2.187 2.187 0 01-.2-.562c-.119-.499-.187-1.182-.187-1.897v-17.154c0-.715.068-1.398.188-1.897.06-.251.128-.439.2-.562.075-.13.132-.155.158-.155zm0 545.258h20.064c.025 0 .082.03.158.16.07.12.14.3.2.55.118.5.187 1.18.187 1.9v228.5c0 .71-.069 1.39-.188 1.89-.06.25-.129.44-.2.56-.074.13-.132.15-.157.15h-20.2c-.013 0-.057-.01-.12-.12-.059-.1-.117-.26-.167-.47-.1-.42-.157-.99-.157-1.59v-18.07c0-.6.057-1.18.157-1.6.05-.21.108-.36.167-.47.063-.1.107-.12.12-.12h5.507c.133 0 .231-.11.3-.22a2.1 2.1 0 00.188-.53c.105-.44.163-1.03.163-1.64v-183.68c0-.73-.068-1.43-.192-1.94a2.434 2.434 0 00-.221-.62c-.08-.14-.191-.26-.338-.26h-5.27c-.026 0-.083-.02-.159-.15-.07-.13-.14-.31-.2-.56-.119-.5-.187-1.19-.187-1.9v-17.16c0-.71.068-1.39.188-1.89.06-.25.128-.44.2-.56.075-.13.132-.16.158-.16zM147.522 199.992h20.064c.025 0 .083.024.158.154.071.122.139.31.199.559.119.498.188 1.179.188 1.893v228.501c0 .714-.069 1.395-.188 1.893-.06.25-.128.437-.199.559-.075.13-.133.155-.158.155h-20.201c-.012 0-.056-.013-.119-.123a1.792 1.792 0 01-.167-.468c-.1-.42-.157-.994-.157-1.596V413.45c0-.603.057-1.177.157-1.596.05-.21.108-.367.167-.468.063-.11.107-.123.119-.123h5.509c.133 0 .23-.107.299-.226.073-.127.136-.305.188-.524.106-.44.164-1.031.164-1.644V225.187c0-.724-.069-1.422-.193-1.94a2.396 2.396 0 00-.221-.616c-.081-.139-.191-.258-.338-.258h-5.271c-.026 0-.083-.024-.159-.155a2.238 2.238 0 01-.199-.561c-.12-.5-.188-1.182-.188-1.898v-17.153c0-.716.068-1.398.188-1.898.06-.25.129-.438.199-.561.076-.131.133-.155.159-.155zm0 545.26h20.064c.025 0 .083.025.158.155.071.122.139.309.199.559.119.498.188 1.178.188 1.893V976.36c0 .714-.069 1.395-.188 1.892-.06.25-.128.437-.199.56-.075.13-.133.154-.158.154h-20.201c-.012 0-.056-.013-.119-.122a1.816 1.816 0 01-.167-.469c-.1-.419-.157-.993-.157-1.595v-18.07c0-.602.057-1.176.157-1.595.05-.211.108-.367.167-.469.063-.109.107-.122.119-.122h5.509c.133 0 .23-.108.299-.227.073-.126.136-.305.188-.524.106-.44.164-1.031.164-1.643V770.448c0-.725-.069-1.422-.193-1.941a2.387 2.387 0 00-.221-.615c-.081-.14-.191-.258-.338-.258h-5.271c-.026 0-.083-.025-.159-.155a2.233 2.233 0 01-.199-.562c-.12-.499-.188-1.182-.188-1.897v-17.154c0-.715.068-1.398.188-1.897.06-.251.129-.439.199-.562.076-.13.133-.155.159-.155zm0 545.258h20.064c.025 0 .083.03.158.16.071.12.139.3.199.55.119.5.188 1.18.188 1.9v228.5c0 .71-.069 1.39-.188 1.89-.06.25-.128.44-.199.56-.075.13-.133.15-.158.15h-20.201c-.012 0-.056-.01-.119-.12-.059-.1-.117-.26-.167-.47-.1-.42-.157-.99-.157-1.59v-18.07c0-.6.057-1.18.157-1.6.05-.21.108-.36.167-.47.063-.1.107-.12.119-.12h5.509c.133 0 .23-.11.299-.22a2.1 2.1 0 00.188-.53c.106-.44.164-1.03.164-1.64v-183.68c0-.73-.069-1.43-.193-1.94a2.446 2.446 0 00-.221-.62c-.081-.14-.191-.26-.338-.26h-5.271c-.026 0-.083-.02-.159-.15-.07-.13-.139-.31-.199-.56-.12-.5-.188-1.19-.188-1.9v-17.16c0-.71.068-1.39.188-1.89.06-.25.129-.44.199-.56.076-.13.133-.16.159-.16zM247.735 199.992h20.064c.025 0 .083.024.158.154.071.122.139.31.199.559.119.498.188 1.179.188 1.893v228.501c0 .714-.069 1.395-.188 1.893-.06.25-.128.437-.199.559-.075.13-.133.155-.158.155h-20.201c-.012 0-.056-.013-.119-.123a1.792 1.792 0 01-.167-.468c-.1-.42-.157-.994-.157-1.596V413.45c0-.603.057-1.177.157-1.596.05-.21.108-.367.167-.468.063-.11.107-.123.119-.123h5.509c.133 0 .23-.107.299-.226.073-.127.136-.305.188-.524.106-.44.164-1.031.164-1.644V225.187c0-.724-.069-1.422-.193-1.94a2.396 2.396 0 00-.221-.616c-.081-.139-.191-.258-.338-.258h-5.271c-.026 0-.083-.024-.159-.155a2.238 2.238 0 01-.199-.561c-.12-.5-.188-1.182-.188-1.898v-17.153c0-.716.068-1.398.188-1.898.06-.25.129-.438.199-.561.076-.131.133-.155.159-.155zm0 545.26h20.064c.025 0 .083.025.158.155.071.122.139.309.199.559.119.498.188 1.178.188 1.893V976.36c0 .714-.069 1.395-.188 1.892-.06.25-.128.437-.199.56-.075.13-.133.154-.158.154h-20.201c-.012 0-.056-.013-.119-.122a1.816 1.816 0 01-.167-.469c-.1-.419-.157-.993-.157-1.595v-18.07c0-.602.057-1.176.157-1.595.05-.211.108-.367.167-.469.063-.109.107-.122.119-.122h5.509c.133 0 .23-.108.299-.227.073-.126.136-.305.188-.524.106-.44.164-1.031.164-1.643V770.448c0-.725-.069-1.422-.193-1.941a2.387 2.387 0 00-.221-.615c-.081-.14-.191-.258-.338-.258h-5.271c-.026 0-.083-.025-.159-.155a2.233 2.233 0 01-.199-.562c-.12-.499-.188-1.182-.188-1.897v-17.154c0-.715.068-1.398.188-1.897.06-.251.129-.439.199-.562.076-.13.133-.155.159-.155zm0 545.258h20.064c.025 0 .083.03.158.16.071.12.139.3.199.55.119.5.188 1.18.188 1.9v228.5c0 .71-.069 1.39-.188 1.89-.06.25-.128.44-.199.56-.075.13-.133.15-.158.15h-20.201c-.012 0-.056-.01-.119-.12-.059-.1-.117-.26-.167-.47-.1-.42-.157-.99-.157-1.59v-18.07c0-.6.057-1.18.157-1.6.05-.21.108-.36.167-.47.063-.1.107-.12.119-.12h5.509c.133 0 .23-.11.299-.22a2.1 2.1 0 00.188-.53c.106-.44.164-1.03.164-1.64v-183.68c0-.73-.069-1.43-.193-1.94a2.446 2.446 0 00-.221-.62c-.081-.14-.191-.26-.338-.26h-5.271c-.026 0-.083-.02-.159-.15-.07-.13-.139-.31-.199-.56-.12-.5-.188-1.19-.188-1.9v-17.16c0-.71.068-1.39.188-1.89.06-.25.129-.44.199-.56.076-.13.133-.16.159-.16zM347.948 199.992h20.064c.025 0 .083.024.158.154.071.122.14.31.199.559.12.498.188 1.179.188 1.893v228.501c0 .714-.068 1.395-.188 1.893-.059.25-.128.437-.199.559-.075.13-.133.155-.158.155h-20.201c-.012 0-.056-.013-.119-.123a1.83 1.83 0 01-.167-.468c-.1-.42-.157-.994-.157-1.596V413.45c0-.603.057-1.177.157-1.596a1.83 1.83 0 01.167-.468c.063-.11.107-.123.119-.123h5.509c.133 0 .231-.107.299-.226.073-.127.136-.305.189-.524.105-.44.163-1.031.163-1.644V225.187c0-.724-.069-1.422-.193-1.94a2.396 2.396 0 00-.221-.616c-.08-.139-.191-.258-.338-.258h-5.271c-.025 0-.083-.024-.158-.155a2.193 2.193 0 01-.2-.561c-.119-.5-.187-1.182-.187-1.898v-17.153c0-.716.068-1.398.187-1.898.06-.25.129-.438.2-.561.075-.131.133-.155.158-.155zm0 545.26h20.064c.025 0 .083.025.158.155.071.122.14.309.199.559.12.498.188 1.178.188 1.893V976.36c0 .714-.068 1.395-.188 1.892-.059.25-.128.437-.199.56-.075.13-.133.154-.158.154h-20.201c-.012 0-.056-.013-.119-.122a1.854 1.854 0 01-.167-.469c-.1-.419-.157-.993-.157-1.595v-18.07c0-.602.057-1.176.157-1.595a1.84 1.84 0 01.167-.469c.063-.109.107-.122.119-.122h5.509c.133 0 .231-.108.299-.227.073-.126.136-.305.189-.524.105-.44.163-1.031.163-1.643V770.448c0-.725-.069-1.422-.193-1.941a2.387 2.387 0 00-.221-.615c-.08-.14-.191-.258-.338-.258h-5.271c-.025 0-.083-.025-.158-.155a2.189 2.189 0 01-.2-.562c-.119-.499-.187-1.182-.187-1.897v-17.154c0-.715.068-1.398.187-1.897.06-.251.129-.439.2-.562.075-.13.133-.155.158-.155zm0 545.258h20.064c.025 0 .083.03.158.16.071.12.14.3.199.55.12.5.188 1.18.188 1.9v228.5c0 .71-.068 1.39-.188 1.89a2.11 2.11 0 01-.199.56c-.075.13-.133.15-.158.15h-20.201c-.012 0-.056-.01-.119-.12-.059-.1-.116-.26-.167-.47-.1-.42-.157-.99-.157-1.59v-18.07c0-.6.057-1.18.157-1.6.051-.21.108-.36.167-.47.063-.1.107-.12.119-.12h5.509c.133 0 .231-.11.299-.22.073-.13.136-.31.189-.53.105-.44.163-1.03.163-1.64v-183.68c0-.73-.069-1.43-.193-1.94a2.446 2.446 0 00-.221-.62c-.08-.14-.191-.26-.338-.26h-5.271c-.025 0-.083-.02-.158-.15a2.29 2.29 0 01-.2-.56c-.119-.5-.187-1.19-.187-1.9v-17.16c0-.71.068-1.39.187-1.89.06-.25.129-.44.2-.56.075-.13.133-.16.158-.16zM67.372-49.42h.002L52.58-28.875v-.104h0-5.29c-.025 0-.083-.025-.158-.155a2.188 2.188 0 01-.2-.562c-.119-.499-.187-1.182-.187-1.897v-15.215c0-.715.068-1.398.187-1.897.06-.25.129-.439.2-.562.075-.13.133-.155.159-.155h20.081zm0 545.259h.002L52.58 516.385v-.103h0-5.29c-.025 0-.083-.025-.158-.155a2.187 2.187 0 01-.2-.562c-.119-.499-.187-1.182-.187-1.897v-15.215c0-.715.068-1.398.187-1.898.06-.25.129-.438.2-.561.075-.13.133-.155.159-.155h20.081zm0 545.261h.002l-14.794 20.55v-.11h0-5.29c-.025 0-.083-.02-.158-.15a2.29 2.29 0 01-.2-.56c-.119-.5-.187-1.19-.187-1.9v-15.22c0-.71.068-1.4.187-1.89.06-.25.129-.44.2-.57.075-.13.133-.15.159-.15h20.081zM167.586-49.42h.001l-14.794 20.546v-.104h0-5.289c-.026 0-.084-.025-.159-.155a2.157 2.157 0 01-.199-.562c-.12-.499-.188-1.182-.188-1.897v-15.215c0-.715.068-1.398.188-1.897a2.17 2.17 0 01.199-.562c.075-.13.133-.155.159-.155h20.082zm0 545.259h.001l-14.794 20.546v-.103h0-5.289c-.026 0-.084-.025-.159-.155a2.156 2.156 0 01-.199-.562c-.12-.499-.188-1.182-.188-1.897v-15.215c0-.715.068-1.398.188-1.898a2.16 2.16 0 01.199-.561c.075-.13.133-.155.159-.155h20.082zm0 545.261h.001l-14.794 20.55v-.11h0-5.289c-.026 0-.084-.02-.159-.15-.071-.13-.14-.31-.199-.56-.12-.5-.188-1.19-.188-1.9v-15.22c0-.71.068-1.4.188-1.89.059-.25.128-.44.199-.57.075-.13.133-.15.159-.15h20.082zM267.799-49.42h.001l-14.794 20.546v-.104h0-5.289c-.026 0-.084-.025-.159-.155a2.157 2.157 0 01-.199-.562c-.12-.499-.188-1.182-.188-1.897v-15.215c0-.715.068-1.398.188-1.897a2.17 2.17 0 01.199-.562c.075-.13.133-.155.159-.155h20.082zm0 545.259h.001l-14.794 20.546v-.103h0-5.289c-.026 0-.084-.025-.159-.155a2.156 2.156 0 01-.199-.562c-.12-.499-.188-1.182-.188-1.897v-15.215c0-.715.068-1.398.188-1.898a2.16 2.16 0 01.199-.561c.075-.13.133-.155.159-.155h20.082zm0 545.261h.001l-14.794 20.55v-.11h0-5.289c-.026 0-.084-.02-.159-.15-.071-.13-.14-.31-.199-.56-.12-.5-.188-1.19-.188-1.9v-15.22c0-.71.068-1.4.188-1.89.059-.25.128-.44.199-.57.075-.13.133-.15.159-.15h20.082zM368.012-49.42h.001l-14.794 20.546v-.104h0-5.289c-.026 0-.083-.025-.159-.155a2.157 2.157 0 01-.199-.562c-.12-.499-.188-1.182-.188-1.897v-15.215c0-.715.068-1.398.188-1.897a2.17 2.17 0 01.199-.562c.076-.13.133-.155.159-.155h20.082zm0 545.259h.001l-14.794 20.546v-.103h0-5.289c-.026 0-.083-.025-.159-.155a2.156 2.156 0 01-.199-.562c-.12-.499-.188-1.182-.188-1.897v-15.215c0-.715.068-1.398.188-1.898a2.16 2.16 0 01.199-.561c.076-.13.133-.155.159-.155h20.082zm0 545.261h.001l-14.794 20.55v-.11h0-5.289c-.026 0-.083-.02-.159-.15-.071-.13-.14-.31-.199-.56-.12-.5-.188-1.19-.188-1.9v-15.22c0-.71.068-1.4.188-1.89.059-.25.128-.44.199-.57.076-.13.133-.15.159-.15h20.082zM-18.034 140.092h-.001c-.025.001-.082-.022-.157-.152a2.174 2.174 0 01-.2-.559 6.582 6.582 0 01-.139-.866 10.548 10.548 0 01-.048-1.029V-46.807c0-.715.068-1.398.187-1.897.06-.25.129-.439.2-.562.075-.13.133-.155.158-.155H2.053c.029.003.087.035.16.165.07.126.137.315.196.565.118.498.185 1.175.185 1.884v15.215c0 .715-.069 1.398-.188 1.897-.06.25-.129.439-.2.562-.075.13-.132.155-.158.155h-5.29c-.146 0-.257.118-.337.258a2.38 2.38 0 00-.221.615c-.124.519-.193 1.217-.193 1.94v163.651c0 .713-.068 1.394-.187 1.892-.06.25-.128.437-.199.56-.075.13-.132.154-.158.154h-13.497zm0 545.26h-.001c-.025 0-.082-.022-.157-.152a2.189 2.189 0 01-.2-.559 6.599 6.599 0 01-.139-.867 10.512 10.512 0 01-.048-1.028V498.453c0-.715.068-1.398.187-1.898.06-.25.129-.438.2-.561.075-.13.133-.155.158-.155H2.053c.029.003.087.035.16.165.07.125.137.315.196.565.118.498.185 1.175.185 1.884v15.215c0 .715-.069 1.398-.188 1.897-.06.251-.129.439-.2.562-.075.13-.132.155-.158.155h-5.29c-.146 0-.257.118-.337.258-.085.147-.16.356-.221.615-.124.518-.193 1.216-.193 1.94v163.651c0 .713-.068 1.394-.187 1.892-.06.25-.128.437-.199.56-.075.13-.132.154-.158.154h-13.497zm0 545.258h-.001c-.025 0-.082-.02-.157-.15a2.1 2.1 0 01-.2-.56 6.623 6.623 0 01-.139-.87c-.032-.32-.048-.67-.048-1.02v-184.3c0-.71.068-1.4.187-1.89.06-.25.129-.44.2-.57.075-.13.133-.15.158-.15H2.053c.029 0 .087.03.16.16.07.13.137.32.196.57.118.5.185 1.17.185 1.88v15.22c0 .71-.069 1.4-.188 1.9-.06.25-.129.43-.2.56-.075.13-.132.15-.158.15h-5.29c-.146 0-.257.12-.337.26-.085.15-.16.36-.221.62-.124.51-.193 1.21-.193 1.94v163.65c0 .71-.068 1.39-.187 1.89-.06.25-.128.44-.199.56-.075.13-.132.15-.158.15h-13.497zM82.18 140.092h-.002c-.024.001-.082-.022-.157-.152a2.174 2.174 0 01-.2-.559 6.6 6.6 0 01-.138-.866 10.547 10.547 0 01-.05-1.029V-46.807c0-.715.069-1.398.188-1.897.06-.25.129-.439.2-.562.075-.13.133-.155.158-.155h20.087c.029.003.087.035.159.165.071.126.139.315.197.565.118.498.185 1.175.185 1.884v15.215c0 .715-.068 1.398-.188 1.897-.06.25-.128.439-.199.562-.076.13-.133.155-.159.155h-5.29c-.146 0-.257.118-.337.258a2.35 2.35 0 00-.221.615c-.124.519-.193 1.217-.193 1.94v163.651c0 .713-.067 1.394-.186 1.892-.06.25-.129.437-.2.56-.075.13-.132.154-.157.154H82.179zm0 545.26h-.002c-.024 0-.082-.022-.157-.152a2.188 2.188 0 01-.2-.559 6.617 6.617 0 01-.138-.867 10.511 10.511 0 01-.05-1.028V498.453c0-.715.069-1.398.188-1.898.06-.25.129-.438.2-.561.075-.13.133-.155.158-.155h20.087c.029.003.087.035.159.165.071.125.139.315.197.565.118.498.185 1.175.185 1.884v15.215c0 .715-.068 1.398-.188 1.897-.06.251-.128.439-.199.562-.076.13-.133.155-.159.155h-5.29c-.146 0-.257.118-.337.258-.085.147-.16.356-.221.615-.124.518-.193 1.216-.193 1.94v163.651c0 .713-.067 1.394-.186 1.892-.06.25-.129.437-.2.56-.075.13-.132.154-.157.154H82.179zm0 545.258h-.002c-.024 0-.082-.02-.157-.15a2.1 2.1 0 01-.2-.56 6.64 6.64 0 01-.138-.87 10.1 10.1 0 01-.05-1.02v-184.3c0-.71.069-1.4.188-1.89.06-.25.129-.44.2-.57.075-.13.133-.15.158-.15h20.087c.029 0 .087.03.159.16.071.13.139.32.197.57.118.5.185 1.17.185 1.88v15.22c0 .71-.068 1.4-.188 1.9-.06.25-.128.43-.199.56-.076.13-.133.15-.159.15h-5.29c-.146 0-.257.12-.337.26-.085.15-.16.36-.221.62-.124.51-.193 1.21-.193 1.94v163.65c0 .71-.067 1.39-.186 1.89-.06.25-.129.44-.2.56-.075.13-.132.15-.157.15H82.179zM182.392 140.092h-.001c-.024.001-.082-.022-.157-.152a2.142 2.142 0 01-.2-.559 6.538 6.538 0 01-.138-.866 10.332 10.332 0 01-.049-1.029V-46.807c0-.715.068-1.398.187-1.897.06-.25.129-.439.2-.562.075-.13.133-.155.158-.155h20.087c.029.003.087.035.159.165.071.126.139.315.197.565.118.498.185 1.175.185 1.884v15.215c0 .715-.068 1.398-.188 1.897-.06.25-.128.439-.199.562-.076.13-.133.155-.159.155h-5.289c-.147 0-.258.118-.338.258a2.386 2.386 0 00-.221.615c-.124.519-.193 1.217-.193 1.94v163.651c0 .713-.068 1.394-.186 1.892-.06.25-.129.437-.2.56-.075.13-.132.154-.157.154h-13.498zm0 545.26h-.001c-.024 0-.082-.022-.157-.152a2.156 2.156 0 01-.2-.559 6.555 6.555 0 01-.138-.867 10.297 10.297 0 01-.049-1.028V498.453c0-.715.068-1.398.187-1.898.06-.25.129-.438.2-.561.075-.13.133-.155.158-.155h20.087c.029.003.087.035.159.165.071.125.139.315.197.565.118.498.185 1.175.185 1.884v15.215c0 .715-.068 1.398-.188 1.897-.06.251-.128.439-.199.562-.076.13-.133.155-.159.155h-5.289c-.147 0-.258.118-.338.258a2.373 2.373 0 00-.221.615c-.124.518-.193 1.216-.193 1.94v163.651c0 .713-.068 1.394-.186 1.892-.06.25-.129.437-.2.56-.075.13-.132.154-.157.154h-13.498zm0 545.258h-.001c-.024 0-.082-.02-.157-.15a2.07 2.07 0 01-.2-.56 6.579 6.579 0 01-.138-.87c-.033-.32-.049-.67-.049-1.02v-184.3c0-.71.068-1.4.187-1.89.06-.25.129-.44.2-.57.075-.13.133-.15.158-.15h20.087c.029 0 .087.03.159.16.071.13.139.32.197.57.118.5.185 1.17.185 1.88v15.22c0 .71-.068 1.4-.188 1.9-.06.25-.128.43-.199.56-.076.13-.133.15-.159.15h-5.289c-.147 0-.258.12-.338.26-.085.15-.159.36-.221.62-.124.51-.193 1.21-.193 1.94v163.65c0 .71-.068 1.39-.186 1.89-.06.25-.129.44-.2.56-.075.13-.132.15-.157.15h-13.498zM282.649 139.988h-.001c-.024 0-.082-.022-.157-.153a2.165 2.165 0 01-.2-.559 6.511 6.511 0 01-.138-.866 10.297 10.297 0 01-.049-1.028V-46.911c0-.715.068-1.398.187-1.898.06-.25.129-.438.2-.561.075-.13.133-.155.158-.155h20.087c.029.003.087.035.159.165.071.125.139.315.198.564.117.499.184 1.176.184 1.885v15.215c0 .715-.068 1.398-.188 1.897-.059.25-.128.439-.199.561-.076.131-.133.155-.159.155h-5.289c-.147 0-.257.119-.338.259a2.386 2.386 0 00-.221.615c-.124.518-.193 1.216-.193 1.94v163.651c0 .713-.067 1.394-.186 1.892-.06.249-.129.437-.199.56-.076.13-.133.154-.158.154h-13.498zm-.044 545.364h-.001c-.024 0-.081-.022-.157-.152a2.194 2.194 0 01-.2-.559 6.555 6.555 0 01-.138-.867 10.606 10.606 0 01-.049-1.028V498.453c0-.715.068-1.398.187-1.898.06-.25.129-.438.2-.561.075-.13.133-.155.158-.155h20.087c.029.003.087.035.16.165.07.125.138.315.197.565.117.498.184 1.175.184 1.884v15.215c0 .715-.068 1.398-.188 1.897a2.156 2.156 0 01-.199.562c-.075.13-.133.155-.159.155h-5.289c-.147 0-.257.118-.338.258a2.373 2.373 0 00-.221.615c-.124.518-.193 1.216-.193 1.94v163.651c0 .713-.067 1.394-.186 1.892-.06.25-.129.437-.199.56-.075.13-.133.154-.158.154h-13.498zm0 545.258h-.001c-.024 0-.081-.02-.157-.15-.072-.12-.14-.31-.2-.56a6.579 6.579 0 01-.138-.87c-.032-.32-.049-.67-.049-1.02v-184.3c0-.71.068-1.4.187-1.89.06-.25.129-.44.2-.57.075-.13.133-.15.158-.15h20.087c.029 0 .087.03.16.16.07.13.138.32.197.57.117.5.184 1.17.184 1.88v15.22c0 .71-.068 1.4-.188 1.9-.059.25-.128.43-.199.56-.075.13-.133.15-.159.15h-5.289c-.147 0-.257.12-.338.26-.085.15-.159.36-.221.62-.124.51-.193 1.21-.193 1.94v163.65c0 .71-.067 1.39-.186 1.89-.06.25-.129.44-.199.56-.075.13-.133.15-.158.15h-13.498zM382.819 140.092h-.002c-.024.001-.081-.022-.157-.152a2.18 2.18 0 01-.2-.559 6.538 6.538 0 01-.138-.866 10.642 10.642 0 01-.049-1.029V-46.807c0-.715.068-1.398.187-1.897.06-.25.129-.439.2-.562.075-.13.133-.155.159-.155h20.087c.028.003.086.035.159.165.07.126.138.315.197.565.117.498.184 1.175.184 1.884v15.215c0 .715-.068 1.398-.187 1.897-.06.25-.129.439-.2.562-.075.13-.133.155-.159.155h-5.289c-.146 0-.257.118-.338.258a2.386 2.386 0 00-.221.615c-.124.519-.192 1.217-.192 1.94v163.651c0 .713-.068 1.394-.187 1.892-.06.25-.129.437-.199.56-.075.13-.133.154-.158.154h-13.497zm0 545.26h-.002c-.024 0-.081-.022-.157-.152a2.194 2.194 0 01-.2-.559 6.555 6.555 0 01-.138-.867 10.606 10.606 0 01-.049-1.028V498.453c0-.715.068-1.398.187-1.898.06-.25.129-.438.2-.561.075-.13.133-.155.159-.155h20.087c.028.003.086.035.159.165.07.125.138.315.197.565.117.498.184 1.175.184 1.884v15.215c0 .715-.068 1.398-.187 1.897-.06.251-.129.439-.2.562-.075.13-.133.155-.159.155h-5.289c-.146 0-.257.118-.338.258a2.373 2.373 0 00-.221.615c-.124.518-.192 1.216-.192 1.94v163.651c0 .713-.068 1.394-.187 1.892-.06.25-.129.437-.199.56-.075.13-.133.154-.158.154h-13.497zm0 545.258h-.002c-.024 0-.081-.02-.157-.15-.072-.12-.14-.31-.2-.56a6.579 6.579 0 01-.138-.87c-.032-.32-.049-.67-.049-1.02v-184.3c0-.71.068-1.4.187-1.89.06-.25.129-.44.2-.57.075-.13.133-.15.159-.15h20.087c.028 0 .086.03.159.16.07.13.138.32.197.57.117.5.184 1.17.184 1.88v15.22c0 .71-.068 1.4-.187 1.9-.06.25-.129.43-.2.56-.075.13-.133.15-.159.15h-5.289c-.146 0-.257.12-.338.26-.085.15-.159.36-.221.62-.124.51-.192 1.21-.192 1.94v163.65c0 .71-.068 1.39-.187 1.89-.06.25-.129.44-.199.56-.075.13-.133.15-.158.15h-13.497zM-3.984 201.244v209.111c0 .724.069 1.422.193 1.94.061.259.136.468.22.615.081.14.192.258.338.258h5.29c.026 0 .083.025.158.155.071.123.14.311.2.562.12.499.187 1.182.187 1.897v15.245c0 .354-.016.703-.049 1.029-.032.326-.079.62-.138.866-.06.248-.128.436-.2.559-.075.131-.132.153-.157.153h-20.084c-.025 0-.082-.022-.158-.153a2.16 2.16 0 01-.2-.559 6.571 6.571 0 01-.138-.866 10.533 10.533 0 01-.049-1.029V201.244c0-.716.069-1.399.188-1.898.06-.25.128-.438.2-.561.075-.131.132-.155.158-.155h13.497c.025 0 .083.023.159.155.071.124.14.313.199.561.059.247.106.542.138.868.032.326.048.676.048 1.03zm-14.041 232.494H2.057L-3.88 201.244c0-.357-.016-.71-.049-1.04a6.72 6.72 0 00-.14-.882 2.3 2.3 0 00-.21-.589c-.08-.137-.163-.207-.249-.207h-13.497c-.172 0-.337.286-.46.796-.12.51-.19 1.201-.19 1.922v229.783c0 .357.018.71.05 1.039.033.33.08.629.141.88.06.252.132.452.21.587.08.136.164.206.249.205zm14.041 312.766v209.111c0 .724.069 1.422.193 1.94.061.259.136.468.22.615.081.14.192.259.338.259h5.29c.026 0 .083.024.158.155.071.123.14.311.2.561.12.499.187 1.182.187 1.898v15.245c0 .353-.016.703-.049 1.028-.032.326-.079.62-.138.867-.06.247-.128.435-.2.559-.075.13-.132.152-.157.152h-20.084c-.025 0-.082-.022-.158-.152a2.189 2.189 0 01-.2-.559 6.616 6.616 0 01-.138-.867 10.512 10.512 0 01-.049-1.028V746.504c0-.716.069-1.398.188-1.898.06-.25.128-.438.2-.561.075-.131.132-.155.158-.155h13.497c.025 0 .083.023.159.155.071.124.14.313.199.562.059.246.106.541.138.868.032.326.048.675.048 1.029zm-14.041 232.494H2.057L-3.88 746.504c0-.357-.016-.71-.049-1.04a6.702 6.702 0 00-.14-.881 2.295 2.295 0 00-.21-.59c-.08-.137-.163-.207-.249-.207h-13.497c-.172 0-.337.286-.46.796-.12.51-.19 1.201-.19 1.922v229.784c0 .356.018.709.05 1.039.033.329.08.628.141.88.06.251.132.451.21.587.08.135.164.205.249.204zm14.041 312.762v209.11c0 .73.069 1.43.193 1.94.061.26.136.47.22.62.081.14.192.26.338.26h5.29c.026 0 .083.02.158.15.071.13.14.31.2.56.12.5.187 1.19.187 1.9v15.25c0 .35-.016.7-.049 1.03a6.41 6.41 0 01-.138.86 2.1 2.1 0 01-.2.56c-.075.13-.132.15-.157.15h-20.084c-.025 0-.082-.02-.158-.15a2.1 2.1 0 01-.2-.56 6.469 6.469 0 01-.138-.86c-.032-.33-.049-.68-.049-1.03v-229.79c0-.71.069-1.4.188-1.89a2.2 2.2 0 01.2-.57c.075-.13.132-.15.158-.15h13.497c.025 0 .083.02.159.15.071.13.14.32.199.57.059.24.106.54.138.86.032.33.048.68.048 1.03zm-14.041 232.5H2.057l-5.937-232.5c0-.35-.016-.71-.049-1.04-.032-.33-.08-.63-.14-.88-.06-.25-.132-.45-.21-.59-.08-.13-.163-.2-.249-.2h-13.497c-.172 0-.337.28-.46.79-.12.51-.19 1.2-.19 1.92v229.79c0 .35.018.71.05 1.04.033.32.08.62.141.88.06.25.132.45.21.58.08.14.164.21.249.21zM96.23 201.244v209.111c0 .724.068 1.422.192 1.94.062.259.136.468.22.615.081.14.192.258.339.258h5.289c.026 0 .083.025.159.155.071.123.139.311.199.562.12.499.188 1.182.188 1.897v15.245c0 .354-.017.703-.049 1.029-.033.326-.08.62-.139.866a2.17 2.17 0 01-.199.559c-.076.131-.133.153-.158.153H82.187c-.025 0-.082-.022-.157-.153a2.156 2.156 0 01-.2-.559 6.555 6.555 0 01-.138-.866 10.532 10.532 0 01-.05-1.029V201.244c0-.716.069-1.399.188-1.898.06-.25.129-.438.2-.561.075-.131.132-.155.158-.155h13.498c.024 0 .082.023.158.155.071.124.14.313.2.561.058.247.105.542.137.868.032.326.049.676.048 1.03zM82.187 433.738h20.082l-5.937-232.494c0-.357-.016-.71-.049-1.04a6.722 6.722 0 00-.14-.882 2.297 2.297 0 00-.21-.589c-.079-.137-.163-.207-.248-.207H82.188c-.172 0-.337.286-.459.796s-.19 1.201-.19 1.922v229.783c0 .357.017.71.05 1.039.032.33.08.629.14.88.06.252.132.452.21.587.08.136.164.206.25.205zM96.23 746.504v209.111c0 .724.068 1.422.192 1.94.062.259.136.468.22.615.081.14.192.259.339.259h5.289c.026 0 .083.024.159.155.071.123.139.311.199.561.12.499.188 1.182.188 1.898v15.245c0 .353-.017.703-.049 1.028-.033.326-.08.62-.139.867a2.199 2.199 0 01-.199.559c-.076.13-.133.152-.158.152H82.187c-.025 0-.082-.022-.157-.152a2.185 2.185 0 01-.2-.559 6.599 6.599 0 01-.138-.867 10.511 10.511 0 01-.05-1.028V746.504c0-.716.069-1.398.188-1.898.06-.25.129-.438.2-.561.075-.131.132-.155.158-.155h13.498c.024 0 .082.023.158.155.071.124.14.313.2.562.058.246.105.541.137.868.032.326.049.675.048 1.029zM82.187 978.998h20.082l-5.937-232.494c0-.357-.016-.71-.049-1.04a6.705 6.705 0 00-.14-.881 2.292 2.292 0 00-.21-.59c-.079-.137-.163-.207-.248-.207H82.188c-.172 0-.337.286-.459.796s-.19 1.201-.19 1.922v229.784c0 .356.017.709.05 1.039.032.329.08.628.14.88.06.251.132.451.21.587.08.135.164.205.25.204zM96.23 1291.76v209.11c0 .73.068 1.43.192 1.94.062.26.136.47.22.62.081.14.192.26.339.26h5.289c.026 0 .083.02.159.15.071.13.139.31.199.56.12.5.188 1.19.188 1.9v15.25c0 .35-.017.7-.049 1.03-.033.32-.08.62-.139.86a2.11 2.11 0 01-.199.56c-.076.13-.133.15-.158.15H82.187c-.025 0-.082-.02-.157-.15-.072-.12-.14-.31-.2-.56a6.453 6.453 0 01-.138-.86c-.033-.33-.05-.68-.05-1.03v-229.79c0-.71.069-1.4.188-1.89.06-.26.129-.44.2-.57.075-.13.132-.15.158-.15h13.498c.024 0 .082.02.158.15.071.13.14.32.2.57.058.24.105.54.137.86.032.33.049.68.048 1.03zm-14.042 232.5h20.082l-5.937-232.5c0-.35-.016-.71-.049-1.04-.032-.33-.08-.63-.14-.88a2.38 2.38 0 00-.21-.59c-.079-.13-.163-.2-.248-.2H82.188c-.172 0-.337.28-.459.79s-.19 1.2-.19 1.92v229.79c0 .35.017.71.05 1.04.032.32.08.62.14.88.06.25.132.45.21.58.08.14.164.21.25.21zM196.442 201.244v209.111c0 .724.069 1.422.193 1.94.062.259.136.468.221.615.08.14.191.258.338.258h5.289c.026 0 .083.025.159.155.071.123.139.311.199.562.12.499.188 1.182.188 1.897v15.245c0 .354-.017.703-.049 1.029-.033.326-.08.62-.139.866a2.17 2.17 0 01-.199.559c-.076.131-.133.153-.158.153H182.4c-.025 0-.082-.022-.157-.153a2.128 2.128 0 01-.2-.559 6.511 6.511 0 01-.138-.866 10.318 10.318 0 01-.049-1.029V201.244c0-.716.068-1.399.187-1.898.06-.25.129-.438.2-.561.075-.131.133-.155.158-.155h13.498c.024 0 .082.023.158.155.071.124.14.313.199.561.059.247.106.542.138.868.032.326.048.676.048 1.03zm-14.041 232.494h20.082l-5.937-232.494c0-.357-.016-.71-.049-1.04a6.675 6.675 0 00-.14-.882 2.32 2.32 0 00-.21-.589c-.079-.137-.163-.207-.248-.207h-13.498c-.172 0-.337.286-.459.796s-.19 1.201-.19 1.922v229.783c0 .357.017.71.049 1.039.033.33.081.629.141.88.06.252.132.452.211.587.079.136.163.206.248.205zm14.041 312.766v209.111c0 .724.069 1.422.193 1.94.062.259.136.468.221.615.08.14.191.259.338.259h5.289c.026 0 .083.024.159.155.071.123.139.311.199.561.12.499.188 1.182.188 1.898v15.245c0 .353-.017.703-.049 1.028-.033.326-.08.62-.139.867a2.199 2.199 0 01-.199.559c-.076.13-.133.152-.158.152H182.4c-.025 0-.082-.022-.157-.152a2.156 2.156 0 01-.2-.559 6.555 6.555 0 01-.138-.867 10.297 10.297 0 01-.049-1.028V746.504c0-.716.068-1.398.187-1.898.06-.25.129-.438.2-.561.075-.131.133-.155.158-.155h13.498c.024 0 .082.023.158.155.071.124.14.313.199.562.059.246.106.541.138.868.032.326.048.675.048 1.029zm-14.041 232.494h20.082l-5.937-232.494c0-.357-.016-.71-.049-1.04a6.658 6.658 0 00-.14-.881 2.316 2.316 0 00-.21-.59c-.079-.137-.163-.207-.248-.207h-13.498c-.172 0-.337.286-.459.796s-.19 1.201-.19 1.922v229.784c0 .356.017.709.049 1.039.033.329.081.628.141.88.06.251.132.451.211.587.079.135.163.205.248.204zm14.041 312.762v209.11c0 .73.069 1.43.193 1.94.062.26.136.47.221.62.08.14.191.26.338.26h5.289c.026 0 .083.02.159.15.071.13.139.31.199.56.12.5.188 1.19.188 1.9v15.25c0 .35-.017.7-.049 1.03-.033.32-.08.62-.139.86a2.11 2.11 0 01-.199.56c-.076.13-.133.15-.158.15H182.4c-.025 0-.082-.02-.157-.15a2.07 2.07 0 01-.2-.56 6.41 6.41 0 01-.138-.86c-.033-.33-.049-.68-.049-1.03v-229.79c0-.71.068-1.4.187-1.89.06-.26.129-.44.2-.57.075-.13.133-.15.158-.15h13.498c.024 0 .082.02.158.15.071.13.14.32.199.57.059.24.106.54.138.86.032.33.048.68.048 1.03zm-14.041 232.5h20.082l-5.937-232.5c0-.35-.016-.71-.049-1.04-.032-.33-.08-.63-.14-.88-.06-.25-.132-.45-.21-.59-.079-.13-.163-.2-.248-.2h-13.498c-.172 0-.337.28-.459.79s-.19 1.2-.19 1.92v229.79c0 .35.017.71.049 1.04.033.32.081.62.141.88.06.25.132.45.211.58.079.14.163.21.248.21zM296.655 201.244v209.111c0 .724.069 1.422.193 1.94.062.259.136.468.221.615.081.14.191.258.338.258h5.289c.026 0 .084.025.159.155.071.123.14.311.2.562.119.499.187 1.182.187 1.897v15.245c0 .354-.017.703-.049 1.029a6.5 6.5 0 01-.139.866 2.17 2.17 0 01-.199.559c-.076.131-.133.153-.157.153h-20.085c-.024 0-.081-.022-.157-.153a2.165 2.165 0 01-.2-.559 6.511 6.511 0 01-.138-.866 10.627 10.627 0 01-.049-1.029V201.244c0-.716.068-1.399.187-1.898.06-.25.129-.438.2-.561.075-.131.133-.155.158-.155h13.498c.025 0 .082.023.158.155.072.124.14.313.199.561.059.247.106.542.138.868.032.326.049.676.048 1.03zm-14.041 232.494h20.082l-5.937-232.494c.001-.357-.016-.71-.048-1.04a6.834 6.834 0 00-.141-.882 2.283 2.283 0 00-.21-.589c-.079-.137-.163-.207-.248-.207h-13.498c-.172 0-.337.286-.459.796-.121.51-.19 1.201-.19 1.922v229.783c0 .357.017.71.05 1.039.032.33.08.629.14.88.061.252.132.452.211.587.079.136.163.206.248.205zm14.041 312.766v209.111c0 .724.069 1.422.193 1.94.062.259.136.468.221.615.081.14.191.259.338.259h5.289c.026 0 .084.024.159.155.071.123.14.311.2.561.119.499.187 1.182.187 1.898v15.245c0 .353-.017.703-.049 1.028-.032.326-.08.62-.139.867a2.199 2.199 0 01-.199.559c-.076.13-.133.152-.157.152h-20.085c-.024 0-.081-.022-.157-.152a2.194 2.194 0 01-.2-.559 6.555 6.555 0 01-.138-.867 10.606 10.606 0 01-.049-1.028V746.504c0-.716.068-1.398.187-1.898.06-.25.129-.438.2-.561.075-.131.133-.155.158-.155h13.498c.025 0 .082.023.158.155.072.124.14.313.199.562.059.246.106.541.138.868.032.326.049.675.048 1.029zm-14.041 232.494h20.082l-5.937-232.494c.001-.357-.016-.71-.048-1.04a6.816 6.816 0 00-.141-.881 2.278 2.278 0 00-.21-.59c-.079-.137-.163-.207-.248-.207h-13.498c-.172 0-.337.286-.459.796-.121.51-.19 1.201-.19 1.922v229.784c0 .356.017.709.05 1.039.032.329.08.628.14.88.061.251.132.451.211.587.079.135.163.205.248.204zm14.041 312.762v209.11c0 .73.069 1.43.193 1.94.062.26.136.47.221.62.081.14.191.26.338.26h5.289c.026 0 .084.02.159.15.071.13.14.31.2.56.119.5.187 1.19.187 1.9v15.25c0 .35-.017.7-.049 1.03-.032.32-.08.62-.139.86a2.11 2.11 0 01-.199.56c-.076.13-.133.15-.157.15h-20.085c-.024 0-.081-.02-.157-.15-.072-.12-.14-.31-.2-.56a6.41 6.41 0 01-.138-.86c-.032-.33-.049-.68-.049-1.03v-229.79c0-.71.068-1.4.187-1.89.06-.26.129-.44.2-.57.075-.13.133-.15.158-.15h13.498c.025 0 .082.02.158.15.072.13.14.32.199.57.059.24.106.54.138.86.032.33.049.68.048 1.03zm-14.041 232.5h20.082l-5.937-232.5c.001-.35-.016-.71-.048-1.04a6.715 6.715 0 00-.141-.88c-.06-.25-.131-.45-.21-.59-.079-.13-.163-.2-.248-.2h-13.498c-.172 0-.337.28-.459.79-.121.51-.19 1.2-.19 1.92v229.79c0 .35.017.71.05 1.04.032.32.08.62.14.88.061.25.132.45.211.58.079.14.163.21.248.21zM396.869 201.244v209.111c0 .724.068 1.422.192 1.94.062.259.136.468.221.615.081.14.192.258.338.258h5.289c.026 0 .084.025.159.155.071.123.14.311.2.562.119.499.187 1.182.187 1.897v15.245c0 .354-.017.703-.049 1.029-.032.326-.079.62-.138.866-.06.248-.128.436-.2.559-.076.131-.133.153-.157.153h-20.085c-.024 0-.081-.022-.157-.153a2.165 2.165 0 01-.2-.559 6.511 6.511 0 01-.138-.866 10.627 10.627 0 01-.049-1.029V201.244c0-.716.068-1.399.187-1.898.06-.25.129-.438.2-.561.075-.131.133-.155.159-.155h13.497c.025 0 .082.023.158.155.072.124.14.313.199.561.059.247.106.542.138.868.032.326.049.676.049 1.03zm-14.041 232.494h20.081l-5.937-232.494c.001-.357-.016-.71-.048-1.04a6.664 6.664 0 00-.141-.882 2.283 2.283 0 00-.21-.589c-.079-.137-.163-.207-.248-.207h-13.497c-.173 0-.338.286-.46.796-.121.51-.19 1.201-.19 1.922v229.783c0 .357.017.71.05 1.039.032.33.08.629.141.88.06.252.131.452.21.587.079.136.163.206.249.205zm14.041 312.766v209.111c0 .724.068 1.422.192 1.94.062.259.136.468.221.615.081.14.192.259.338.259h5.289c.026 0 .084.024.159.155.071.123.14.311.2.561.119.499.187 1.182.187 1.898v15.245c0 .353-.017.703-.049 1.028-.032.326-.079.62-.138.867-.06.247-.128.435-.2.559-.076.13-.133.152-.157.152h-20.085c-.024 0-.081-.022-.157-.152a2.194 2.194 0 01-.2-.559 6.555 6.555 0 01-.138-.867 10.606 10.606 0 01-.049-1.028V746.504c0-.716.068-1.398.187-1.898.06-.25.129-.438.2-.561.075-.131.133-.155.159-.155h13.497c.025 0 .082.023.158.155.072.124.14.313.199.562.059.246.106.541.138.868.032.326.049.675.049 1.029zm-14.041 232.494h20.081l-5.937-232.494c.001-.357-.016-.71-.048-1.04a6.648 6.648 0 00-.141-.881 2.278 2.278 0 00-.21-.59c-.079-.137-.163-.207-.248-.207h-13.497c-.173 0-.338.286-.46.796-.121.51-.19 1.201-.19 1.922v229.784c0 .356.017.709.05 1.039.032.329.08.628.141.88.06.251.131.451.21.587.079.135.163.205.249.204zm14.041 312.762v209.11c0 .73.068 1.43.192 1.94.062.26.136.47.221.62.081.14.192.26.338.26h5.289c.026 0 .084.02.159.15.071.13.14.31.2.56.119.5.187 1.19.187 1.9v15.25c0 .35-.017.7-.049 1.03a6.41 6.41 0 01-.138.86c-.06.25-.128.44-.2.56-.076.13-.133.15-.157.15h-20.085c-.024 0-.081-.02-.157-.15-.072-.12-.14-.31-.2-.56a6.41 6.41 0 01-.138-.86c-.032-.33-.049-.68-.049-1.03v-229.79c0-.71.068-1.4.187-1.89.06-.26.129-.44.2-.57.075-.13.133-.15.159-.15h13.497c.025 0 .082.02.158.15.072.13.14.32.199.57.059.24.106.54.138.86.032.33.049.68.049 1.03zm-14.041 232.5h20.081l-5.937-232.5c.001-.35-.016-.71-.048-1.04a6.55 6.55 0 00-.141-.88c-.06-.25-.131-.45-.21-.59-.079-.13-.163-.2-.248-.2h-13.497c-.173 0-.338.28-.46.79-.121.51-.19 1.2-.19 1.92v229.79c0 .35.017.71.05 1.04.032.32.08.62.141.88.06.25.131.45.21.58.079.14.163.21.249.21z" opacity=".2" stroke="#fff" stroke-width=".208"/></svg>