<svg width="145" height="32" fill="none" xmlns="http://www.w3.org/2000/svg"><g clip-path="url(#clip0_141_8527)"><path d="M.001 0h7.337c.25.61.478 1.228.72 1.84 2.743 7.077 5.484 14.155 8.23 21.23.84-2.202 1.667-4.41 2.503-6.614l5.411-14.321c.271-.711.534-1.426.81-2.135h15.03c.306.028.616.019.924.046C42.71.162 44.45.58 46.014 1.39c.84.425 1.618.967 2.334 1.581a9.593 9.593 0 012.074 2.372 8.45 8.45 0 011.146 3.223 9.85 9.85 0 01-.205 3.828 8.501 8.501 0 01-1.23 2.67 10.419 10.419 0 01-2.14 2.248 11.688 11.688 0 01-2.76 1.62c-1.044.437-2.148.711-3.264.868 1.38.002 2.762 0 4.143 0L52.883 32h-7.61l-6.61-12.066h-6.246L32.416 32H25.53c-.002-9.468.002-18.936-.003-28.403a4.1 4.1 0 00-.09.237C21.958 13.223 18.48 22.61 15.004 32H12.92L1.859 3.458c-.002 9.514 0 19.028-.001 28.542H0L.001 0zm32.416 1.592v16.756h5.296a5.73 5.73 0 001.22-.167 5.322 5.322 0 002.594-1.541c.69-.73 1.188-1.63 1.527-2.577.438-1.225.62-2.531.646-3.83.018-1.391-.132-2.797-.568-4.122-.33-1.003-.83-1.96-1.541-2.738a5.345 5.345 0 00-2.512-1.57c-.565-.163-1.155-.216-1.74-.21h-4.922zM64.982 8.36a9.729 9.729 0 012.834-.428c1.045-.008 2.104.105 3.095.458.67.235 1.298.603 1.815 1.1.54.507.955 1.161 1.13 1.89.066.28.103.569.1.858l-.64-.001a3.15 3.15 0 00-.271-1.33 2.95 2.95 0 00-.608-.856 4.651 4.651 0 00-2.415-1.22 7.112 7.112 0 00-2.734.066 5.069 5.069 0 00-2.476 1.354c-.694.691-1.172 1.58-1.474 2.513-.379 1.177-.504 2.425-.496 3.659.007 1.037.114 2.082.401 3.08a7.383 7.383 0 001.303 2.57c.454.576 1.034 1.065 1.72 1.326.582.225 1.216.292 1.837.255.788-.047 1.585-.29 2.208-.797.45-.364.788-.865.954-1.425.055-.14.028-.291.034-.437.005-.433-.01-.865-.007-1.298-.002-.81.012-1.621.007-2.432h3.432v6.811h-.539c-.594-.56-1.194-1.113-1.788-1.673-.46.611-1.123 1.036-1.82 1.317-.827.333-1.716.483-2.603.509a9.3 9.3 0 01-2.924-.379c-1.674-.502-3.162-1.584-4.215-2.993a7.485 7.485 0 01-1.297-2.837 8.553 8.553 0 01-.206-1.92c-.015-1.194.218-2.399.727-3.478.475-1.013 1.184-1.902 2.019-2.633a8.032 8.032 0 012.897-1.629zm36.233-.402c1.313-.09 2.657.044 3.899.508.946.35 1.82.895 2.564 1.583a8.002 8.002 0 011.879 2.545c.502 1.083.723 2.286.719 3.478.003 1.28-.258 2.572-.839 3.713a8.223 8.223 0 01-2.063 2.56 7.729 7.729 0 01-2.791 1.493c-.714.21-1.454.32-2.196.348-1.307.053-2.635-.125-3.85-.631a7.823 7.823 0 01-2.65-1.825 7.685 7.685 0 01-1.779-2.821c-.444-1.253-.55-2.613-.403-3.93a7.67 7.67 0 011.266-3.465 8.423 8.423 0 012.26-2.245c1.18-.793 2.577-1.218 3.984-1.311zm.288.646a3.583 3.583 0 00-1.6.579c-.48.316-.883.742-1.212 1.215-.642.93-1.016 2.028-1.22 3.138-.231 1.293-.262 2.618-.152 3.924.121 1.358.445 2.723 1.136 3.902.467.79 1.125 1.494 1.965 1.867.651.295 1.385.374 2.089.282a3.566 3.566 0 001.558-.604 4.384 4.384 0 001.054-1.052c.362-.506.659-1.06.879-1.644.472-1.241.637-2.58.66-3.903a14.9 14.9 0 00-.145-2.36c-.173-1.18-.53-2.348-1.175-3.352-.451-.725-1.077-1.364-1.861-1.706-.617-.277-1.308-.357-1.976-.286zM78.07 8.116h7.192c1.128.002 2.272.242 3.258.812a6.45 6.45 0 011.232.932c.345.335.645.72.869 1.15.26.497.416 1.048.466 1.608a4.707 4.707 0 01-.277 2.13c-.313.816-.892 1.502-1.572 2.03a5.85 5.85 0 01-1.6.878 5.657 5.657 0 01-1.345.318c.323.026.648.007.973.013h1.073c1.126 2.029 2.255 4.057 3.377 6.088h-3.798c-1.1-2.004-2.196-4.01-3.295-6.014H81.51v6.014c-1.147.002-2.293 0-3.44 0-.002-5.319 0-10.639 0-15.959zm3.44.796v8.352h2.473c.298 0 .598-.03.885-.117.647-.19 1.198-.649 1.555-1.223.33-.52.521-1.119.622-1.725a7.142 7.142 0 00.04-1.934c-.07-.598-.22-1.192-.496-1.728-.237-.46-.572-.878-1-1.168a2.66 2.66 0 00-1.549-.457h-2.53zm31.625-.803h3.44v9.702a7.054 7.054 0 00.21 1.974c.245.95.774 1.837 1.554 2.428.856.655 1.946.927 3.006.911 1.074.009 2.181-.304 3.015-1.013.281-.237.529-.513.736-.818-.005-3.255-.001-6.51-.002-9.763.002-1.138-.006-2.276.008-3.414h3.432v15.959h-.54c-.832-.768-1.652-1.548-2.485-2.313a5.201 5.201 0 01-2.459 1.94c-1.178.455-2.466.534-3.712.431-1.135-.1-2.263-.421-3.241-1.025-.884-.546-1.655-1.298-2.176-2.21a5.936 5.936 0 01-.672-1.879c-.106-.573-.122-1.159-.114-1.74v-9.17zm18.824 0h6.424c.473.002.948-.011 1.421.03 1.04.085 2.072.402 2.945.991.736.502 1.411 1.143 1.81 1.96.268.535.405 1.13.441 1.728v.523a4.444 4.444 0 01-.495 1.843c-.465.878-1.221 1.568-2.068 2.055-.992.568-2.14.812-3.272.814h-3.766v6.015h-3.439l-.001-15.959zm3.44.796v8.351h2.171c.261-.004.525.015.785-.024a2.627 2.627 0 001.509-.748 3.43 3.43 0 00.73-1.084c.263-.605.387-1.266.422-1.924a6.959 6.959 0 00-.108-1.68c-.11-.568-.307-1.125-.625-1.607a2.912 2.912 0 00-.952-.92 2.709 2.709 0 00-1.354-.364h-2.578z" fill="#fff"/></g><defs><clipPath id="clip0_141_8527"><path fill="#fff" d="M0 0h145v32H0z"/></clipPath></defs></svg>