<svg width="333" height="448" fill="none" xmlns="http://www.w3.org/2000/svg"><path d="M54.823 0H2.509A2.509 2.509 0 000 2.509V444.81a2.51 2.51 0 002.509 2.509h52.314a2.51 2.51 0 002.509-2.509V2.509A2.509 2.509 0 0054.823 0zm140.458 230.876h-77.733a2.514 2.514 0 00-2.515 2.516v15.878a2.513 2.513 0 002.515 2.516h20.423a2.508 2.508 0 012.509 2.509v170.031a2.124 2.124 0 01-2.12 2.12h-21.342a2.123 2.123 0 00-2.12 2.12v16.726a2.12 2.12 0 002.12 2.12h78.263a2.519 2.519 0 002.516-2.508V233.385a2.519 2.519 0 00-2.516-2.509zM195.277 0h-77.804a2.517 2.517 0 00-2.516 2.516V16.6a2.515 2.515 0 002.516 2.515h20.493a2.509 2.509 0 012.516 2.509v151.488a2.508 2.508 0 002.508 2.508h52.294a2.5 2.5 0 001.778-.732 2.511 2.511 0 00.737-1.776V2.516A2.513 2.513 0 00195.277 0zm135.211 0h-77.839a2.513 2.513 0 00-2.516 2.516v170.596a2.515 2.515 0 00.737 1.776 2.502 2.502 0 001.779.732h52.293c.665 0 1.303-.264 1.774-.734.47-.471.734-1.109.734-1.774V21.624a2.511 2.511 0 012.509-2.509h20.493a2.517 2.517 0 002.516-2.515V2.516A2.516 2.516 0 00330.488 0zm-.004 428.209H309.99a2.512 2.512 0 01-1.774-.734 2.512 2.512 0 01-.734-1.774v-193.57a2.518 2.518 0 00-.733-1.778 2.518 2.518 0 00-1.776-.738H252.68a2.516 2.516 0 00-2.516 2.516v212.706a2.502 2.502 0 00.737 1.777 2.511 2.511 0 001.779.732h77.804a2.5 2.5 0 001.778-.732 2.511 2.511 0 00.737-1.777v-14.112a2.516 2.516 0 00-2.515-2.516z" opacity=".1" fill="#000"/></svg>