<svg width="606" height="815" fill="none" xmlns="http://www.w3.org/2000/svg"><path d="M99.756 0H4.565A4.565 4.565 0 000 4.565v804.812a4.565 4.565 0 004.565 4.565h95.191a4.565 4.565 0 004.565-4.565V4.565A4.565 4.565 0 0099.756 0zm255.577 420.102H213.89a4.577 4.577 0 00-4.578 4.578v28.893a4.58 4.58 0 004.578 4.577h37.161a4.565 4.565 0 014.565 4.565v309.388a3.861 3.861 0 01-3.858 3.858h-38.832a3.855 3.855 0 00-3.858 3.857v30.436a3.86 3.86 0 003.858 3.858h142.407a4.58 4.58 0 004.578-4.565v-384.88a4.578 4.578 0 00-4.578-4.565zM355.332 0H213.76a4.575 4.575 0 00-4.577 4.578v25.627a4.576 4.576 0 004.577 4.577h37.29a4.562 4.562 0 014.229 2.815c.23.555.349 1.15.349 1.75v275.647a4.565 4.565 0 004.564 4.565h95.153a4.55 4.55 0 003.236-1.333 4.57 4.57 0 001.342-3.232V4.578a4.575 4.575 0 00-2.835-4.233A4.577 4.577 0 00355.332 0zm246.02 0H459.716a4.577 4.577 0 00-4.578 4.578v310.416a4.57 4.57 0 002.827 4.221 4.55 4.55 0 001.751.344h95.152a4.565 4.565 0 004.565-4.565V39.347a4.565 4.565 0 014.565-4.565h37.29a4.575 4.575 0 004.577-4.577V4.578A4.577 4.577 0 00601.352 0zm-.001 779.17h-37.289a4.565 4.565 0 01-4.565-4.565V422.386a4.57 4.57 0 00-2.815-4.229 4.57 4.57 0 00-1.75-.349h-95.153a4.577 4.577 0 00-4.577 4.578v387.04a4.568 4.568 0 001.341 3.232c.425.425.93.761 1.486.989a4.55 4.55 0 001.75.344h141.572a4.55 4.55 0 003.236-1.333 4.56 4.56 0 001.342-3.232v-25.678a4.575 4.575 0 00-4.578-4.578z" opacity=".1" fill="#000"/></svg>