<svg width="76" height="76" fill="none" xmlns="http://www.w3.org/2000/svg"><circle cx="38" cy="38" r="37.5" stroke="#71E6FF"/><path opacity=".3" d="M54.228 35.971a8.306 8.306 0 01-12.483 7.175c4.184-4.083 7.334-9.775 5.647-15.333a8.305 8.305 0 016.836 8.158z" fill="#fff"/><path d="M40.811 35.971h-7.666a.639.639 0 01-.639-.638v-6.389a.639.639 0 01.64-.639h7.665a.639.639 0 01.64.639v6.389a.639.639 0 01-.64.638zm-7.027-1.277h6.389v-5.111h-6.389v5.11z" fill="#fff"/><path d="M42.728 29.583H31.23a.64.64 0 01-.39-1.144l5.75-4.472a.639.639 0 01.78 0l5.75 4.472a.64.64 0 01-.39 1.144zm-9.64-1.278h7.781l-3.89-3.022-3.89 3.022zm5.168 7.666h-2.555a.639.639 0 01-.639-.639v-3.194a.639.639 0 01.639-.639h2.555a.639.639 0 01.64.64v3.193a.639.639 0 01-.64.64zm-1.916-1.277h1.277v-1.917H36.34v1.916z" fill="#fff"/><path d="M42.09 35.971H31.867a.639.639 0 110-1.277H42.09a.639.639 0 010 1.277zM29.69 48.69c-.556-.255-.403-.07 0-8.61a.638.638 0 011.143-.359c1.832 2.3 4.01 4.3 6.459 5.929a.637.637 0 01.325.543c0 5.59.109 5.392-.293 5.647-.403.256-.135.262-7.635-3.15zm.9-.983l5.75 2.607v-3.776a29.77 29.77 0 01-5.43-4.76l-.32 5.93z" fill="#fff"/><path d="M36.34 51.304c0-5.616-.109-5.398.3-5.654a28.316 28.316 0 006.459-5.929.639.639 0 011.143.358l.403 8.03c0 .607 0 .435-7.405 3.834a.64.64 0 01-.9-.64zm1.277-4.766v3.776l5.75-2.607-.3-5.928a29.775 29.775 0 01-5.45 4.759zm-15.971 4.766a.64.64 0 01-.639-.735c2.045-13.614 1.815-13.097 2.332-13.282l4.427-1.61c.965-.351.569.83 3.086 4.038.21.275.172-.288-.268 8.426a.638.638 0 01-.454.582c-8.854 2.728-8.343 2.58-8.484 2.58zm2.492-12.944l-1.713 11.398 6.887-2.128.364-7.315a19.712 19.712 0 01-2.037-3.239l-3.501 1.285z" fill="#fff"/><path d="M52.31 51.304c-.146 0 .518.185-8.49-2.556a.638.638 0 01-.453-.58c-.428-8.478-.48-8.153-.268-8.427 2.498-3.195 2.127-4.39 3.085-4.038l4.428 1.61c.51.185.255-.543 2.331 13.282a.64.64 0 01-.632.709zm-7.665-3.674l6.912 2.128L49.82 38.36l-3.526-1.278a19.71 19.71 0 01-2.038 3.239l.39 7.308z" fill="#fff"/><path d="M47.392 27.8A10.86 10.86 0 0036.978 20c-8.714 0-15.288 10.151-7.13 20.5 2.39 3.074 6.491 6.332 7.13 6.332.965 0 13.416-9.123 10.414-19.032zm-2.006 8.216c-1.661 3.68-5.175 7.213-8.408 9.41-4.766-3.251-9.583-8.74-9.583-14.566a9.583 9.583 0 019.583-9.582c6.683 0 12.01 6.79 8.408 14.738z" fill="#fff"/></svg>