<svg width="49" height="49" fill="none" xmlns="http://www.w3.org/2000/svg"><circle cx="24.5" cy="24.5" r="24" stroke="#71E6FF"/><path d="M18.847 23.202h-4.402a.489.489 0 01-.489-.49v-1.955a.489.489 0 01.49-.49h4.4a.489.489 0 01.49.49v1.956a.49.49 0 01-.49.489zm-3.913-.978h3.424v-.978h-3.424v.978zm3.913 5.38h-4.402a.489.489 0 01-.489-.49v-1.956a.489.489 0 01.49-.489h4.4a.489.489 0 01.49.49v1.956a.489.489 0 01-.49.489zm-3.913-.979h3.424v-.978h-3.424v.978zm3.913 5.38h-4.402a.49.49 0 01-.489-.49V29.56a.489.489 0 01.49-.49h4.4a.489.489 0 01.49.49v1.956a.489.489 0 01-.49.489zm-3.913-.978h3.424v-.978h-3.424v.978z" fill="#fff"/><path opacity=".3" d="M37.43 16.355a6.357 6.357 0 01-3.06 5.433l-4.275-2.298v-5.58a.489.489 0 00-.489-.49h-.489v-1.955a.489.489 0 00-.49-.49h-.938a6.357 6.357 0 019.742 5.38z" fill="#fff"/><path d="M18.847 35.428h-6.358A.49.49 0 0112 34.94V18.311a.489.489 0 01.49-.489h6.357a.49.49 0 01.489.49v16.627a.489.489 0 01-.49.49zm-5.869-.978h5.38V18.8h-5.38v15.65z" fill="#fff"/><path d="M29.606 13.42H18.847a.49.49 0 00-.49.49v21.03a.489.489 0 00.49.488h10.76a.49.49 0 00.488-.489V13.91a.49.49 0 00-.489-.49zm-.489 21.03h-9.781V14.4h9.781v20.05z" fill="#fff"/><path d="M36.194 22.772c-6.847-3.702-6.51-3.61-6.847-3.424-.338.186-.23-.973-.23 15.591a.489.489 0 00.489.49h6.358a.489.489 0 00.489-.49c0-12.715.112-11.977-.26-12.167zm-.72 11.678h-5.379V20.595l5.38 2.9V34.45zm-6.846-23.474h-8.803a.49.49 0 00-.49.489v2.445a.49.49 0 00.49.49h8.803a.49.49 0 00.489-.49v-2.445a.489.489 0 00-.49-.49zm-8.314 2.445v-1.467h7.825v1.467h-7.825zm2.934 5.379h-1.956a.489.489 0 01-.49-.489v-1.956a.49.49 0 01.49-.489h1.956a.489.489 0 01.49.489v1.956a.49.49 0 01-.49.49zm-1.467-.978h.978v-.978h-.978v.978zm5.379.978h-1.956a.489.489 0 01-.489-.489v-1.956a.49.49 0 01.49-.489h1.956a.489.489 0 01.489.489v1.956a.489.489 0 01-.49.49zm-1.467-.978h.979v-.978h-.979v.978zm-2.445 5.38h-1.956a.489.489 0 01-.49-.49v-1.955a.49.49 0 01.49-.49h1.956a.489.489 0 01.49.49v1.956a.49.49 0 01-.49.489zm-1.467-.978h.978v-.978h-.978v.978zm5.379.978h-1.956a.489.489 0 01-.489-.49v-1.955a.49.49 0 01.49-.49h1.956a.489.489 0 01.489.49v1.956a.49.49 0 01-.49.489zm-1.467-.978h.979v-.978h-.979v.978zm-2.445 5.38h-1.956a.489.489 0 01-.49-.49v-1.956a.49.49 0 01.49-.489h1.956a.489.489 0 01.49.49v1.956a.49.49 0 01-.49.489zm-1.467-.979h.978v-.978h-.978v.978zm5.379.979h-1.956a.489.489 0 01-.489-.49v-1.956a.49.49 0 01.49-.489h1.956a.489.489 0 01.489.49v1.956a.489.489 0 01-.49.489zm-1.467-.979h.979v-.978h-.979v.978z" fill="#fff"/><path d="M33.519 27.604h-1.957a.489.489 0 01-.489-.49v-1.956a.49.49 0 01.49-.489h1.956a.489.489 0 01.489.49v1.956a.49.49 0 01-.49.489zm-1.468-.979h.978v-.978h-.978v.978zm1.468 5.38h-1.957a.49.49 0 01-.489-.49V29.56a.49.49 0 01.49-.49h1.956a.489.489 0 01.489.49v1.956a.49.49 0 01-.49.489zm-1.468-.978h.978v-.978h-.978v.978zm-4.891 4.401h-5.868a.489.489 0 01-.49-.489v-5.38a.49.49 0 01.49-.488h5.868a.489.489 0 01.49.489v5.38a.49.49 0 01-.49.488zm-5.38-.978h4.891v-4.4h-4.89v4.401z" fill="#fff"/></svg>