<svg width="49" height="49" fill="none" xmlns="http://www.w3.org/2000/svg"><path d="M15.51 35.65A2.51 2.51 0 0113 33.139V14.512A2.512 2.512 0 0115.51 12h18.348a2.514 2.514 0 012.512 2.512V33.14a2.512 2.512 0 01-2.512 2.51H24.97a.562.562 0 010-1.124h4.177v-3.291a.563.563 0 011.126 0v3.29h3.584c.765 0 1.383-.62 1.383-1.385v-5.457h-5.2a.564.564 0 010-1.127h5.2v-8.164h-5.355a.564.564 0 010-1.126h5.355v-2.753c0-.765-.618-1.385-1.383-1.385H23.799v4.138h1.63a.563.563 0 010 1.126H23.8v8.164h.497a.564.564 0 010 1.127h-2.12a.563.563 0 110-1.127h.5V13.127H15.51c-.764 0-1.383.62-1.383 1.385v12.043h3.554c.31 0 .563.254.563.564v3.174a.564.564 0 01-1.127 0v-2.611h-2.99v5.457c0 .764.619 1.386 1.383 1.386h1.566v-1.527a.563.563 0 011.125 0v1.527h.35a.563.563 0 110 1.125h-3.04z" fill="#fff"/><circle cx="24.5" cy="24.5" r="24" stroke="#71E6FF"/><circle opacity=".2" cx="33.5" cy="15.5" r="7.5" fill="#fff"/></svg>