<svg width="30" height="31" fill="none" xmlns="http://www.w3.org/2000/svg"><path d="M3.222 30.36A3.222 3.222 0 010 27.135V3.226A3.224 3.224 0 013.222 0h23.553A3.227 3.227 0 0130 3.225v23.911a3.225 3.225 0 01-3.225 3.223H15.368a.721.721 0 010-1.444h5.361V24.69a.723.723 0 011.446 0v4.225h4.6c.983 0 1.777-.798 1.777-1.779v-7.005h-6.677a.724.724 0 010-1.447h6.677V8.204h-6.875a.723.723 0 010-1.446h6.875V3.225c0-.983-.794-1.779-1.777-1.779H13.863v5.312h2.093a.722.722 0 010 1.446h-2.093v10.48h.637a.725.725 0 110 1.446h-2.72a.723.723 0 110-1.446h.64V1.446H3.222c-.98 0-1.776.796-1.776 1.78v15.458H6.01c.397 0 .722.327.722.724v4.075a.724.724 0 01-1.446 0V20.13h-3.84v7.005c0 .981.795 1.78 1.776 1.78h2.01v-1.96a.722.722 0 011.445 0v1.96h.45c.4 0 .724.325.724.72a.723.723 0 01-.724.723H3.222z" fill="#fff"/></svg>