<svg width="49" height="49" fill="none" xmlns="http://www.w3.org/2000/svg"><circle cx="24.5" cy="24.5" r="24" stroke="#71E6FF"/><path opacity=".3" d="M37.431 31.562a6.358 6.358 0 01-6.358 6.358c-3.912 0-6.739-3.492-6.357-6.847h4.401a.489.489 0 00.49-.49v-5.207a6.357 6.357 0 017.824 6.186z" fill="url(#paint0_linear_501_5467)"/><path d="M16.89 33.518a1.956 1.956 0 10-3.912 0 .489.489 0 11-.978 0V14.934a2.935 2.935 0 015.869 0v18.584a.489.489 0 11-.979 0zm-1.956-20.54a1.956 1.956 0 00-1.956 1.956v16.393a2.934 2.934 0 013.912 0V14.934a1.956 1.956 0 00-1.956-1.956z" fill="#fff"/><path d="M35.963 36.453h-21.03a2.934 2.934 0 111.957-5.126V14.934a.489.489 0 01.49-.489h18.583a.489.489 0 01.49.49v21.029a.489.489 0 01-.49.489zm-21.03-4.89a1.956 1.956 0 100 3.912h20.541V15.423H17.868v18.095a.489.489 0 11-.978 0 1.956 1.956 0 00-1.956-1.956z" fill="#fff"/><path d="M29.117 24.226h-7.825a.489.489 0 00-.49.49v5.868a.49.49 0 00.49.49h7.825a.49.49 0 00.489-.49v-5.869a.489.489 0 00-.49-.489zm-.49 5.869h-6.846v-4.89h6.847v4.89z" fill="#fff"/><path d="M30.095 25.204c-10.505 0-10.065.132-10.236-.313-.171-.445-.147-.293 5.018-4.94a.49.49 0 01.655 0l4.89 4.402a.489.489 0 01-.327.851zm-8.505-.978h7.229l-3.614-3.252-3.615 3.252zm8.505 9.292h-9.781a.49.49 0 110-.978h9.78a.489.489 0 110 .978z" fill="#fff"/><path d="M19.825 33.518v-.978a.489.489 0 11.978 0v.978a.489.489 0 11-.978 0zm9.781 0v-.978a.489.489 0 11.978 0v.978a.49.49 0 01-.978 0z" fill="#fff"/><path d="M30.095 33.518h-9.781a.49.49 0 110-.978h9.78a.489.489 0 110 .978z" fill="#fff"/><path d="M19.825 33.518v-.978a.489.489 0 11.978 0v.978a.489.489 0 11-.978 0zm9.781 0v-.978a.489.489 0 11.978 0v.978a.49.49 0 01-.978 0zm2.444-2.934v-10.27a.489.489 0 11.979 0v10.27a.489.489 0 11-.978 0z" fill="#fff"/><path d="M33.03 31.073h-.979a.489.489 0 110-.978h.978a.489.489 0 110 .978zm0-10.27h-.979a.49.49 0 010-.978h.978a.489.489 0 110 .978z" fill="#fff"/><path d="M32.05 30.584v-10.27a.489.489 0 11.979 0v10.27a.489.489 0 11-.978 0z" fill="#fff"/><path d="M33.03 31.073h-.979a.489.489 0 110-.978h.978a.489.489 0 110 .978zm0-10.27h-.979a.49.49 0 010-.978h.978a.489.489 0 110 .978zm-10.76-2.934h-2.934a.489.489 0 110-.978h2.934a.489.489 0 110 .978zm0 2.445h-2.934a.489.489 0 110-.978h2.934a.489.489 0 110 .978z" fill="#fff"/><defs><linearGradient id="paint0_linear_501_5467" x1="24.701" y1="31.562" x2="37.431" y2="31.562" gradientUnits="userSpaceOnUse"><stop offset="1" stop-color="#fff"/></linearGradient></defs></svg>