<svg width="28" height="34" fill="none" xmlns="http://www.w3.org/2000/svg"><path d="M15.993 12.71a.794.794 0 010-1.587h5.422a.795.795 0 010 1.587h-5.422zm0 2.976a.792.792 0 010-1.585h5.422a.793.793 0 010 1.585h-5.422zm-6.633.389a.794.794 0 01-.796-.794c0-.436.355-.791.796-.791h2.066a.794.794 0 110 1.585H9.36zm6.633 2.584a.792.792 0 01-.79-.794c0-.438.353-.793.79-.793h5.422a.795.795 0 010 1.587h-5.422zm-6.633 1.26a.796.796 0 110-1.59h2.066a.795.795 0 010 1.59H9.36zm6.633 1.713a.79.79 0 01-.79-.794c0-.438.353-.793.79-.793h5.422a.795.795 0 010 1.587h-5.422zM9.36 23.594a.794.794 0 110-1.587h2.066a.795.795 0 010 1.587H9.36zm6.633 1.01a.792.792 0 010-1.584h5.422c.435 0 .793.355.793.793a.794.794 0 01-.793.792h-5.422zm0 2.976a.792.792 0 01-.79-.793c0-.439.353-.794.79-.794h5.422a.795.795 0 010 1.587h-5.422zm7.627 2.23V5.319l-.04.011c-4.109 1.171-9.115 4.545-12.676 7.115a.627.627 0 01-.357.123l-3.64.088-.002 12.276 5.308.011c.35 0 .635.284.635.635v4.234H23.62zm-12.043 0v-3.598l-7.609-.02v3.619h7.61zm-7.924 1.27a.811.811 0 01-.127-.013l-.07-.02-.123.022a.634.634 0 01-.635-.634v-4.883c0-.348.285-.632.636-.632l2.301.007.002-12.894c0-.344.274-.626.62-.635l4.065-.096 1.327-.948c3.436-2.403 7.892-5.226 11.713-6.281l.307-.078V.633a.636.636 0 011.27 0v3.853c0 .09-.017.175-.05.249v25.342c0 .09-.019.172-.051.248l-.023.05.015.07a.636.636 0 01-.635.636H3.653zM.636 34a.636.636 0 110-1.27h26.475a.636.636 0 010 1.27H.636z" fill="#fff"/></svg>