<svg width="16" height="26" fill="none" xmlns="http://www.w3.org/2000/svg"><path d="M2.005 6.11a.483.483 0 01-.404-.21.497.497 0 01.113-.684l2.318-1.668a.48.48 0 01.672.116.497.497 0 01-.114.683l-2.316 1.67a.524.524 0 01-.269.092zm-.2 2.381a.482.482 0 01-.404-.213.498.498 0 01.126-.681L6.066 4.45a.48.48 0 01.67.126.497.497 0 01-.124.683L2.07 8.405a.46.46 0 01-.267.086zm6.013 7.881a.484.484 0 01-.468-.489v-3.869a.48.48 0 01.327-.46l.83-.293a.482.482 0 01.617.3.494.494 0 01-.3.626l-.508.177v2.922l.304-.061c.26-.054.517.12.569.383a.49.49 0 01-.38.576l-.88.18a.512.512 0 01-.111.008zm7.218 4.924V1.35c0-.148-.16-.372-.48-.372H3.39l6.478 2.01c.611.19.97.916.97 1.522v12.625l.085.055 4.112 4.106zm-.643.737l-3.554-3.551v3.551h3.553zm-4.557 2.979l.014-.023a.482.482 0 00.026-.165V4.51c0-.327-.213-.56-.29-.584L1.031 1.272l-.012.023a.438.438 0 00-.025.163V21.77c0 .33.21.564.288.587l8.554 2.655zm.089.986a.915.915 0 01-.218-.012.95.95 0 01-.12-.027L1 23.294c-.459-.143-.778-.586-.907-1.055l-.054-.382-.001-.004A.48.48 0 010 21.66V1.35C0 .55.704 0 1.444 0h13.112C15.295 0 16 .55 16 1.35v20.31c0 .802-.705 1.349-1.444 1.349h-3.717v1.814c0 .343-.106.689-.35.923a.88.88 0 01-.564.25z" fill="#fff"/></svg>