<svg width="49" height="49" fill="none" xmlns="http://www.w3.org/2000/svg"><circle cx="24.5" cy="24.5" r="24" stroke="#71E6FF"/><path opacity=".3" d="M21.23 35.453a6.357 6.357 0 11-5.34-11.43v8.495a2.934 2.934 0 002.934 2.935h2.406z" fill="#fff"/><path d="M16.38 15.402h-4.89a.49.49 0 01-.49-.49v-.978a2.935 2.935 0 015.869 0v.978a.489.489 0 01-.49.49zm-4.402-.979h3.912v-.489a1.956 1.956 0 10-3.912 0v.49zm25.92 17.117H21.27a.49.49 0 00-.489.49v.488a1.956 1.956 0 01-1.956 1.957.489.489 0 100 .978h16.628a2.934 2.934 0 002.934-2.935v-.489a.489.489 0 00-.489-.489zm-2.445 2.935H21.01a2.935 2.935 0 00.748-1.957h15.65a1.956 1.956 0 01-1.956 1.957z" fill="#fff"/><path d="M30.445 11h-16.51a.489.489 0 100 .978 1.956 1.956 0 011.956 1.956v18.584a2.934 2.934 0 003.423 2.895 3.14 3.14 0 002.445-2.895h11.248a.489.489 0 00.49-.489V14.052A3.057 3.057 0 0030.444 11zM21.27 31.54a.49.49 0 00-.489.49v.39c0 1.702-2.025 2.788-3.34 1.468a1.956 1.956 0 01-.572-1.37V13.934a2.935 2.935 0 00-.744-1.956h14.32a2.074 2.074 0 012.073 2.074V31.54H21.27z" fill="#fff"/><path d="M30.073 23.226h-10.76a.49.49 0 010-.978h10.76a.49.49 0 010 .978zm0 2.446h-10.76a.49.49 0 010-.979h10.76a.489.489 0 110 .979zm-2.934-4.891h-4.891a.489.489 0 01-.49-.489v-2.445h-.977a.489.489 0 01-.323-.856l3.913-3.423a.49.49 0 01.645 0c4.284 3.75 4.21 3.53 4.05 3.961-.162.43-.416.318-1.438.318v2.445a.49.49 0 01-.49.49zm-4.402-.978h3.913v-2.445a.489.489 0 01.489-.49c.234 0 .557.343-2.446-2.283-3.012 2.636-2.68 2.284-2.445 2.284a.489.489 0 01.489.489v2.445z" fill="#fff"/><path d="M25.183 17.847h-.979a.49.49 0 00-.489.489v1.956c0 .27.22.49.49.49h.978a.49.49 0 00.489-.49v-1.956a.49.49 0 00-.49-.49zm10.759 11.248c-.352 0-.367-.157-1.384-1.688-.117-.176-.083.548-.083-9.071a1.467 1.467 0 112.934 0c0 9.62.034 8.895-.083 9.072-1.037 1.56-1.042 1.687-1.384 1.687zm-.489-2.103l.489.733.49-.733v-8.656a.49.49 0 00-.979 0v8.656zm-14.129 2.861l1.467-2.934a.489.489 0 01.548-.27c.489.108.376.49.376 1.742.181-.186.357-.387.675-.25.43.176.088.46.445.103a.49.49 0 01.836.362c0 .645-1.315.489 2.446.489a.49.49 0 010 .978c-2.578 0-3.028.078-3.424-.26-.161.162-.337.353-.65.22-.43-.175-.088-.459-.445-.102a.49.49 0 01-.86-.347c0-.49.14-.655-.544.71a.489.489 0 01-.87-.441z" fill="#fff"/></svg>