<svg viewBox="0 0 32 32" xmlns="http://www.w3.org/2000/svg"><path d="M16 28.72a3 3 0 01-2.13-.88l-10.3-10.3a8.72 8.72 0 01-2.52-6.25 8.06 8.06 0 018.14-8A8.06 8.06 0 0115 5.68l1 1 .82-.82a8.39 8.39 0 0111-.89 8.25 8.25 0 01.81 12.36l-10.5 10.51a3 3 0 01-2.13.88zM9.15 5.28A6.12 6.12 0 004.89 7a6 6 0 00-1.84 4.33A6.72 6.72 0 005 16.13l10.3 10.3a1 1 0 001.42 0l10.51-10.52a6.25 6.25 0 001.77-4.8 6.18 6.18 0 00-2.43-4.55 6.37 6.37 0 00-8.37.71L16.71 8.8a1 1 0 01-1.42 0l-1.7-1.7a6.28 6.28 0 00-4.4-1.82z" fill="#101820" data-name="Layer 54" id="Layer_54"/></svg>