<svg width="29" height="28" fill="none" xmlns="http://www.w3.org/2000/svg"><path d="M23.76 7.11a2.3 2.3 0 01-2.3 2.298H4.3A2.299 2.299 0 012 7.109V4.3A2.3 2.3 0 014.299 2H21.46c1.27 0 2.298 1.03 2.298 2.299v2.81z" stroke="#fff" stroke-width="2.203" stroke-miterlimit="10" stroke-linecap="round" stroke-linejoin="round"/><path d="M24.222 5.241h1.827c.6 0 .951.553.951 1.153v4.233c0 .517-.297.963-.803 1.065l-12.244 2.8c-.507.103-.842.548-.842 1.065v3.11M14.5 25.81a.727.727 0 01-.727.728h-1.787a.727.727 0 01-.727-.727v-6.417c0-.401.326-.727.727-.727h1.787c.402 0 .727.326.727.727v6.417z" stroke="#fff" stroke-width="2.203" stroke-miterlimit="10" stroke-linecap="round" stroke-linejoin="round"/></svg>