<svg width="22" height="25" fill="none" xmlns="http://www.w3.org/2000/svg"><path d="M14.98 7.665a.63.63 0 110-1.258h1.64a.63.63 0 010 1.258h-1.64zm-4.23 0a.63.63 0 010-1.258h1.642a.63.63 0 010 1.258H10.75zm4.23 3.072a.63.63 0 010-1.26h1.64a.63.63 0 010 1.26h-1.64zm-4.23 0a.63.63 0 010-1.26h1.642a.63.63 0 010 1.26H10.75zm0 3.072a.631.631 0 010-1.26h5.767a.63.63 0 110 1.26h-5.766zm4.23 3.071a.63.63 0 010-1.26h1.64a.63.63 0 010 1.26h-1.64zm-4.23 0a.63.63 0 010-1.26h1.642a.63.63 0 010 1.26H10.75zm-5.998 1.177a.503.503 0 110-1.008H6.09a.505.505 0 110 1.008H4.752zm5.999 1.915a.628.628 0 110-1.258h5.766a.628.628 0 110 1.258h-5.766zm-5.999.524a.504.504 0 010-1.006H6.09c.278 0 .505.227.505.503a.506.506 0 01-.505.503H4.752zm13.986 1.031V4.791l-.937-.151a30.15 30.15 0 00-8.099.005l-.935.148v10.475l.003.018v6.241h9.968zm-10.977 0v-5.83l-.308-.063a11.773 11.773 0 00-4.186-.005l-.314.065v5.833h4.808zm-5.215 1.007a.5.5 0 01-.49-.403l-.012-.097-.057-.084a.519.519 0 01-.04-.196v-6.468c0-.23.16-.433.384-.488a12.69 12.69 0 014.54-.269l.888.159.002-10.326a.5.5 0 01.414-.496 32.265 32.265 0 014.879-.493l.19-.005V.503a.503.503 0 011.005 0v2.863l.2.002c1.627.037 3.256.2 4.885.5a.5.5 0 01.412.494v17.384a.481.481 0 01-.041.195l.02.09a.504.504 0 01-.504.503H2.546zM.502 24.85a.504.504 0 010-1.007h20.996a.503.503 0 010 1.007H.502z" fill="#fff"/></svg>