<svg width="20" height="29" fill="none" xmlns="http://www.w3.org/2000/svg"><g opacity=".5" fill="#fff"><path d="M17.305 7.157v20.1a.358.358 0 11-.717 0V7.516h-6.355v20.116a.358.358 0 11-.717 0V7.515H3.16v19.743a.358.358 0 11-.717 0V7.157c0-.198.16-.359.358-.359h14.144c.198 0 .359.16.359.359zM11.475 2.2a.358.358 0 00.507 0l1.39-1.39a.359.359 0 00-.506-.508L11.729 1.44 10.59.303a.358.358 0 10-.506.507l1.39 1.39zm-4.46-.199L8.152.865 9.29 2.002a.357.357 0 00.507 0 .359.359 0 000-.507L8.406.105a.358.358 0 00-.507 0l-1.39 1.39a.359.359 0 00.506.507z"/><path d="M19.211 28.17H.538A.538.538 0 010 27.63V5.02c0-.297.24-.538.538-.538H19.21c.298 0 .538.241.538.538v22.613c0 .297-.24.537-.538.537zM1.075 27.093h17.599V5.557H1.075v21.537z"/></g></svg>