<svg width="49" height="49" fill="none" xmlns="http://www.w3.org/2000/svg"><circle cx="24.5" cy="24.5" r="24" stroke="#71E6FF"/><path opacity=".3" d="M31.86 24.232h-.26v-1.467a.489.489 0 10-.978 0v3.116a6.29 6.29 0 01-1.467 1.056v-.748a.489.489 0 10-.978 0v.978h-1.468V25.21a.489.489 0 10-.978 0v2.446a6.358 6.358 0 01-5.15-9.292h4.661v2.934h-2.934a.489.489 0 00-.489.49v1.955a.49.49 0 00.489.49h6.847a.49.49 0 00.489-.49v-1.956a.489.489 0 00-.49-.489H26.22v-2.934h5.64a6.357 6.357 0 010 5.868z" fill="#fff"/><path opacity=".3" d="M29.155 26.189v.748a6.358 6.358 0 01-3.424.719V25.21a.49.49 0 01.979 0v1.956h1.467v-.978a.489.489 0 11.978 0zm2.445-1.957h.259a6.393 6.393 0 01-1.237 1.648v-3.115a.489.489 0 11.978 0v1.467z" fill="#fff"/><path d="M31.111 28.145h-4.89a.49.49 0 010-.978h4.89a.49.49 0 010 .978zm4.89-2.935h-4.89a.489.489 0 110-.978H36a.489.489 0 110 .979z" fill="#fff"/><path d="M26.71 25.21v4.402a.49.49 0 01-.979 0v-4.401a.49.49 0 01.979 0zm4.89-2.445v6.847a.489.489 0 11-.978 0v-6.847a.489.489 0 11.978 0zm3.912 3.913v-4.89a.49.49 0 01.978 0v4.89a.489.489 0 11-.978 0zm-6.358-.489v3.423a.489.489 0 11-.978 0v-3.423a.489.489 0 11.978 0zm3.913.489v-3.424a.489.489 0 11.978 0v3.424a.489.489 0 11-.978 0zm2.67-10.216c-3.076-1.585-2.905-1.521-3.076-1.521-18.902 0-17.865-.069-18.095.146-1.834 1.898-1.55 1.32-1.55 2.788a.49.49 0 00.489.489h22.007a.489.489 0 00.49-.49c0-1.016.068-1.241-.265-1.412zm-.714.924h-21.03c0-.387-.185-.098 1.145-1.467h17.406c2.85 1.467 2.48 1.198 2.48 1.467z" fill="#fff"/><path d="M16.928 15.918a.489.489 0 01-.489-.488v-2.935a.489.489 0 01.489-.489c.978 0 1.203-.063 1.389.22 2.034 3.115 2.127 3.081 1.956 3.423-.171.343-.225.27-3.345.27zm.49-.978h1.5c-1.467-2.25-1.188-1.956-1.5-1.956v1.956zm2.444 19.074h-2.934a.489.489 0 01-.489-.49v-15.65a.489.489 0 01.489-.488h2.934a.49.49 0 01.49.489v15.65a.489.489 0 01-.49.489zm-2.445-.979h1.956V18.364h-1.956v14.671zm19.563 3.424H25.241a.489.489 0 01-.49-.49v-6.357a.49.49 0 01.49-.49h5.38v-2.445a.489.489 0 01.489-.488h5.868a.49.49 0 01.49.488v9.292a.489.489 0 01-.49.49zm-11.25-.979h10.76v-8.313H31.6v2.445a.49.49 0 01-.49.489h-5.379v5.38zm.49-17.605v3.912a.489.489 0 11-.978 0v-3.912a.489.489 0 11.978 0z" fill="#fff"/><path d="M21.33 36.459h-5.87a.489.489 0 01-.489-.49v-2.445a.489.489 0 01.49-.489h5.868a.489.489 0 01.489.49v2.444a.489.489 0 01-.49.49zm-5.38-.979h4.89v-1.467h-4.89v1.467z" fill="#fff"/><path d="M16.928 33.524a.489.489 0 01-.347-.836l2.934-2.934a.491.491 0 01.694.694c-3.227 3.228-3.002 3.076-3.281 3.076z" fill="#fff"/><path d="M19.863 30.59c-.294 0-.142.064-3.282-3.076a.491.491 0 11.695-.695l2.934 2.935a.489.489 0 01-.347.836z" fill="#fff"/><path d="M16.928 27.656a.49.49 0 01-.347-.836l2.934-2.935a.491.491 0 01.694.695c-3.227 3.228-3.002 3.076-3.281 3.076zm0-5.869a.489.489 0 01-.347-.836l2.934-2.934a.491.491 0 01.694.694c-3.227 3.228-3.002 3.076-3.281 3.076z" fill="#fff"/><path d="M19.863 24.721c-.294 0-.142.064-3.282-3.076a.491.491 0 01.695-.694l2.934 2.934a.489.489 0 01-.347.836zm9.292-3.423h-6.847a.489.489 0 00-.49.49v1.955a.49.49 0 00.49.49h6.847a.49.49 0 00.489-.49v-1.956a.49.49 0 00-.49-.489zm-.49 1.956h-5.868v-.978h5.869v.978z" fill="#fff"/></svg>