<svg width="30" height="30" fill="none" xmlns="http://www.w3.org/2000/svg"><path d="M14.516 0C10.166 0 5.048 1.037.68 3.288L0 3.633v.771c0 4.64.087 17.018 13.876 25.21l.64.387.64-.386c13.79-8.193 13.876-20.572 13.876-25.21v-.762l-.674-.351C24.042 1.03 18.866 0 14.516 0zm0 2.516c3.721 0 8.232.952 11.967 2.749-.01 4.86-.522 14.43-11.967 21.66-11.445-7.23-11.962-16.8-11.967-21.66 3.794-1.8 8.246-2.749 11.967-2.749zm6.294 6.957c-.327.01-.605.215-.762.372l-6.723 6.978-2.52-3.018c-1.192-1.381-2.827-.313-3.203-.064l5.845 6.787 7.983-10.81a.868.868 0 00-.62-.245z" fill="#000"/></svg>