<svg width="49" height="49" fill="none" xmlns="http://www.w3.org/2000/svg"><circle cx="24.5" cy="24.5" r="24" stroke="#71E6FF"/><path opacity=".3" d="M24.715 29.29a6.357 6.357 0 11-5.38-6.28 5.869 5.869 0 005.38 6.28z" fill="#fff"/><path d="M36.942 34.669H13.467a.489.489 0 01-.489-.49v-2.444a.49.49 0 01.49-.49c20.71 0 19.532-.068 19.747.142l.528.529a.596.596 0 001.012-.28.49.49 0 01.49-.39h1.697a.489.489 0 01.489.489v2.445a.49.49 0 01-.49.489zm-22.986-.978h22.497v-1.467c-1.248 0-.67-.103-1.16.386a1.595 1.595 0 01-2.244 0l-.382-.386h-18.71v1.467z" fill="#fff"/><path d="M32.868 32.224H15.912a.49.49 0 01-.489-.49c0-13.835-.093-12.88.216-13.086 10.054-6.695 9.448-6.475 9.834-6.197 10.094 6.73 9.512 6.226 9.512 6.603 0 12.109.128 11.488-.303 11.664-.43.176-.186.244-4.279-3.85-.548-.552.67-1.04.67-3.447a5.868 5.868 0 10-2.035 4.43.489.489 0 01.67 0l3.507 3.512a.489.489 0 01-.347.86zM16.4 31.246h15.29l-2.362-2.367a6.847 6.847 0 112.025-2.446l2.655 2.656v-9.781l-8.803-5.869-8.803 5.869v11.938z" fill="#fff"/><path d="M36.399 20.81c-.215 0 .518.444-11.195-7.366L14.28 20.726a.489.489 0 01-.675-.132c-1.179-1.765-1.213-1.731-1.16-1.995.055-.264-.787.357 12.491-8.495.387-.26-.538-.719 12.818 8.187a.49.49 0 01.137.68c-1.169 1.745-1.144 1.838-1.491 1.838zm-11.195-8.442c.215 0-.518-.445 11.058 7.272l.543-.806-11.6-7.737-11.601 7.737.543.806c11.483-7.653 10.827-7.272 11.057-7.272z" fill="#fff"/><path d="M25.204 28.311a4.89 4.89 0 110-9.78 4.89 4.89 0 010 9.78zm0-8.803a3.912 3.912 0 100 7.825 3.912 3.912 0 000-7.825z" fill="#fff"/><path d="M35.293 30.37l-3.942-3.942a6.847 6.847 0 10-12.994-3.497c-.489 5.693 6.245 9.542 10.97 5.947 4.03 4.04 3.976 4.196 4.841 4.196a1.584 1.584 0 001.125-2.704zm-.533 1.252a.554.554 0 01-.161.293.592.592 0 01-.856 0l-4.035-4.04a.489.489 0 00-.67 0c-3.912 3.424-10.06.343-9.688-4.84a5.87 5.87 0 0111.723.386c0 2.445-1.223 2.88-.67 3.423 4.46 4.484 4.455 4.323 4.357 4.778z" fill="#fff"/></svg>