<svg width="15" height="15" fill="none" xmlns="http://www.w3.org/2000/svg"><path d="M14.838 4.73A4.727 4.727 0 008.264.372a4.72 4.72 0 00-1.503 1.014 4.72 4.72 0 00-1.385 3.346c0 .798.2 1.58.583 2.276L.295 12.666a.464.464 0 00-.091.518.33.33 0 00.073.106l1.269 1.268a.36.36 0 00.106.074.46.46 0 00.518-.092l.784-.784 1.129 1.129a.36.36 0 00.105.073.46.46 0 00.519-.091l1.25-1.25a.361.361 0 00.074-.107.46.46 0 00-.092-.518l-1.11-1.11 3-3.002a4.723 4.723 0 002.276.583 4.727 4.727 0 004.732-4.732zm-3.074 1.66a2.333 2.333 0 01-1.66.687 2.333 2.333 0 01-1.658-.687 2.335 2.335 0 01-.69-1.66c0-.627.245-1.216.688-1.659a2.333 2.333 0 011.66-.687c.625 0 1.216.244 1.659.687.443.443.687 1.034.687 1.66a2.309 2.309 0 01-.686 1.66z" fill="#1A192A"/></svg>