<svg width="27" height="28" fill="none" xmlns="http://www.w3.org/2000/svg"><path d="M24.618 5.555l.56-.81c.344-.613.564-1.26.619-1.834.087-.9-.28-1.478-.853-1.654-.539-.167-1.476-.048-2.773.883l-.369.287.192.129a9.481 9.481 0 012.53 2.822l.094.177zm-6.278 3.54a1.226 1.226 0 001.148-1.503l-.037-.102-.08-.054a.596.596 0 01-.237-.388l-.005-.07-.012-.014a1.225 1.225 0 10-.777 2.13zm-8.31.964a.596.596 0 01-.593-.599c.036-3.275 3.451-6.584 6.536-6.348a.594.594 0 11-.092 1.185c-2.344-.178-5.224 2.536-5.251 5.175a.593.593 0 01-.6.587zm6.655 8.327a8.176 8.176 0 004.556-1.582 8.254 8.254 0 003.16-8.557l-.203-.715-.28.188c-.645.368-1.366.587-2.123.577a3.895 3.895 0 01-.897-.118l-.208-.064-.01.127a2.392 2.392 0 01-.96 1.579 2.413 2.413 0 01-3.377-.523 2.415 2.415 0 01.528-3.376 2.412 2.412 0 013.509.731l.015.031.184.101c.882.45 1.733.393 2.493.035l.65-.404-.228-.437a8.028 8.028 0 00-.463-.705C20.344 1.596 15.177.795 11.5 3.484c-3.672 2.685-4.477 7.855-1.79 11.53l.6.72.987.909.66.474a8.276 8.276 0 004.728 1.27zM2.514 26.243l3.028-.35 6.68-7.273-.9-.496a9.4 9.4 0 01-2.574-2.407l-.3-.46-1.118.144-.14 2.16a.686.686 0 01-.561.63l-2.303.424-.266 2.335a.68.68 0 01-.592.6l-2.092.278.053 3.576 7.11-7.749a.684.684 0 111.007.925l-7.032 7.663zM.7 27.812a.691.691 0 01-.614-.67L0 21.24a.686.686 0 01.595-.689l2.166-.29.262-2.307a.683.683 0 01.555-.596l2.28-.417.143-2.193a.688.688 0 01.597-.634l1.144-.148-.305-.767a9.445 9.445 0 0112.98-11.59l.323.174.09-.11C22.54.243 24.1-.253 25.296.12c1.246.388 1.807 1.622 1.687 2.903-.11 1.124-.67 2.377-1.515 3.377l-.314.307.151.381c1.302 3.806.057 8.178-3.363 10.677a9.378 9.378 0 01-5.21 1.815 9.554 9.554 0 01-2.258-.185l-.887-.239-7.208 7.852a.697.697 0 01-.424.218l-5.108.585a.61.61 0 01-.148.002z" fill="#fff"/></svg>