<svg width="76" height="76" fill="none" xmlns="http://www.w3.org/2000/svg"><circle cx="38" cy="38" r="37.5" stroke="#71E6FF"/><circle opacity=".2" cx="45.596" cy="28.681" r="8.681" fill="#fff"/><path d="M38 24.172c-9.389 0-17 7.684-17 17.163 0 5.14 2.218 8.491 2.218 8.491l29.558.001S55 46.164 55 41.334c0-9.478-7.611-17.162-17-17.162zm13.53 23.565l-27.003-.012s-1.44-2.725-1.44-6.444c0-8.308 6.703-15.043 14.971-15.043s14.97 6.735 14.97 15.043c.001 3.761-1.498 6.456-1.498 6.456z" fill="#fff"/><path d="M42.805 28.73h-.214l-4.534 8.885-4.698-8.961-6.432 16.189h-1.662v1.3h9.106v-1.3h-1.807l1.807-5.06 3.686 6.36 3.541-6.36 1.807 5.06h-1.807v1.3h9.034v-1.3h-1.565L42.805 28.73z" fill="#fff"/></svg>