<svg width="49" height="49" fill="none" xmlns="http://www.w3.org/2000/svg"><circle cx="24.5" cy="24.5" r="24" stroke="#71E6FF"/><path d="M18.194 14.226h-2.226v4.822h.742v-1.854h1.484a1.485 1.485 0 000-2.968zm0 2.226H16.71v-1.484h1.484a.743.743 0 010 1.484z" fill="#fff"/><path d="M36 32.774V23.13h-7.573l-3.734 3.734-3.095.516a1.85 1.85 0 00-1.55 1.83v3.565h4.482c.083.577.354 1.094.753 1.484h-5.977V27.21h-.742v-6.453a4.455 4.455 0 003.34-4.305A4.457 4.457 0 0017.451 12 4.457 4.457 0 0013 16.452a4.455 4.455 0 003.339 4.305v6.453h-.742v7.048h-1.113V35h20.032v-.742H28.91c.399-.39.67-.907.754-1.484H36zM13.742 16.452a3.714 3.714 0 013.71-3.71 3.714 3.714 0 013.71 3.71 3.714 3.714 0 01-3.71 3.71 3.714 3.714 0 01-3.71-3.71zm4.08 4.432v6.326h-.741v-6.326c.122.01.245.02.37.02.126 0 .249-.01.372-.02zm.742 13.374H16.34v-4.823h2.226v4.823zm0-5.565H16.34v-.741h2.226v.741zm5.966 3.34h-3.74v-.743h3.964c-.11.231-.187.48-.224.742zm2.567 2.225a1.857 1.857 0 01-1.855-1.855c0-1.022.832-1.855 1.855-1.855 1.022 0 1.855.833 1.855 1.855a1.857 1.857 0 01-1.855 1.855zm1.855-3.71v.042a2.587 2.587 0 00-3.71 0v-.042H20.79v-1.34c0-.546.391-1.007.93-1.097l3.33-.555 3.684-3.685h6.524v6.677H31.92v.742h3.34v.742h-5.595a2.576 2.576 0 00-.225-.742h1.738v-.742h-2.225z" fill="#fff"/><path d="M29.169 24.613L26.2 27.581h8.315v-2.968h-5.347zm4.605 2.226h-5.782l1.484-1.484h4.298v1.484zm-6.677 4.451c-.614 0-1.113.5-1.113 1.113 0 .614.5 1.113 1.113 1.113s1.113-.5 1.113-1.113-.5-1.113-1.113-1.113zm0 1.484a.371.371 0 110-.743.371.371 0 010 .743zm7.419-4.451H31.92v.741h2.597v-.741z" fill="#fff"/><circle opacity=".2" cx="28.5" cy="20.5" r="7.5" fill="#fff"/></svg>