<svg width="40" height="40" fill="none" xmlns="http://www.w3.org/2000/svg"><circle opacity=".2" cx="20" cy="20" r="19.5" stroke="#253244"/><path d="M20.25 10A6.257 6.257 0 0014 16.25h2.5a3.755 3.755 0 013.75-3.75A3.755 3.755 0 0124 16.25c0 1.336-.567 1.831-1.851 2.819-.478.367-1.017.782-1.533 1.297-1.64 1.639-1.622 3.255-1.616 3.384v2.5h2.5v-2.511c0-.03.029-.752.884-1.605.4-.4.852-.748 1.288-1.084 1.325-1.02 2.828-2.175 2.828-4.8A6.257 6.257 0 0020.25 10zM19 27.5h2.5V30H19v-2.5z" fill="#000"/></svg>