<svg width="16" height="26" fill="none" xmlns="http://www.w3.org/2000/svg"><path opacity=".5" d="M2.005 6.109a.483.483 0 01-.404-.209.497.497 0 01.113-.684l2.318-1.668a.48.48 0 01.672.116.497.497 0 01-.114.683L2.274 6.016a.524.524 0 01-.269.093zm-.2 2.382a.482.482 0 01-.404-.213.498.498 0 01.126-.682L6.066 4.45a.48.48 0 01.67.127.497.497 0 01-.124.683L2.07 8.405a.46.46 0 01-.267.086zm6.013 7.88a.484.484 0 01-.468-.488v-3.87c0-.208.13-.394.327-.46l.83-.292a.482.482 0 01.617.3.494.494 0 01-.3.625l-.508.178v2.922l.304-.062c.26-.054.517.12.569.384a.49.49 0 01-.38.575l-.88.18a.506.506 0 01-.111.009zm7.218 4.925V1.349c0-.148-.16-.371-.48-.371H3.39l6.478 2.01c.611.19.97.916.97 1.522v12.624l.085.056 4.112 4.106zm-.643.737l-3.554-3.552v3.552h3.553zM9.835 25.01l.014-.023a.483.483 0 00.026-.164V4.51c0-.327-.213-.56-.29-.585L1.031 1.271l-.012.023a.438.438 0 00-.025.163V21.77c0 .329.21.563.288.586l8.554 2.655zm.089.986a.915.915 0 01-.218-.012.803.803 0 01-.12-.027L1 23.294c-.459-.143-.778-.586-.907-1.055l-.054-.383-.001-.004A.48.48 0 010 21.661V1.349C0 .55.704 0 1.444 0h13.112C15.295 0 16 .55 16 1.35v20.312c0 .801-.705 1.348-1.444 1.348h-3.717v1.815c0 .342-.106.688-.35.923a.88.88 0 01-.564.25" fill="#fff"/></svg>