<svg width="49" height="49" fill="none" xmlns="http://www.w3.org/2000/svg"><path d="M19.005 17.11a.484.484 0 01-.404-.21.497.497 0 01.113-.684l2.318-1.668a.48.48 0 01.672.116.497.497 0 01-.114.683l-2.316 1.67a.525.525 0 01-.269.093zm-.2 2.381a.483.483 0 01-.404-.213.498.498 0 01.126-.681l4.539-3.147a.48.48 0 01.67.126.497.497 0 01-.124.683l-4.541 3.146a.46.46 0 01-.267.086zm6.013 7.881a.484.484 0 01-.468-.489v-3.869a.48.48 0 01.327-.46l.83-.293a.482.482 0 01.617.3.494.494 0 01-.3.626l-.508.177v2.922l.304-.062c.26-.053.517.12.569.384a.491.491 0 01-.38.576l-.88.18a.512.512 0 01-.111.008zm7.217 4.924V12.35c0-.148-.159-.372-.48-.372H20.392l6.478 2.01c.611.19.97.916.97 1.522v12.625l.085.055 4.111 4.106zm-.642.737l-3.554-3.551v3.551h3.553zm-4.557 2.979l.014-.023a.48.48 0 00.026-.164V15.51c0-.327-.213-.56-.29-.584l-8.555-2.654-.011.023a.438.438 0 00-.026.163V32.77c0 .33.21.564.288.586l8.554 2.656zm.089.986a.915.915 0 01-.218-.012.919.919 0 01-.12-.027L18 34.294c-.459-.143-.777-.586-.907-1.055l-.054-.382-.001-.004A.48.48 0 0117 32.66V12.35c0-.8.704-1.35 1.444-1.35h13.112c.739 0 1.444.55 1.444 1.35v20.31c0 .802-.705 1.349-1.444 1.349h-3.717v1.815c0 .342-.106.688-.35.922a.88.88 0 01-.564.25z" fill="#fff"/><circle cx="24.5" cy="24.5" r="24" stroke="#71E6FF"/><circle opacity=".2" cx="15.5" cy="21.5" r="7.5" fill="#fff"/></svg>