<svg width="36" height="36" fill="none" xmlns="http://www.w3.org/2000/svg"><circle opacity=".1" cx="18" cy="18" r="17.5" stroke="#fff"/><path d="M19.544 20.568c1.464 0 2.712-.504 3.72-1.488 1.032-1.008 1.536-2.232 1.536-3.672s-.504-2.664-1.536-3.672c-1.032-1.032-2.256-1.536-3.72-1.536h-6.072v8.352h-2.04v2.016h2.04v1.944h-2.04v1.632h2.04V27h2.208v-2.856h5.952v-1.632H15.68v-1.944h3.864zm0-8.28c.84 0 1.56.312 2.16.912.6.6.888 1.344.888 2.208 0 .864-.312 1.608-.912 2.232-.6.6-1.296.912-2.136.912H15.68v-6.264h3.864z" fill="#71E6FF"/></svg>