<svg width="194" height="25" fill="none" xmlns="http://www.w3.org/2000/svg"><path d="M49.668 18.463V.689h-5.694v22.794H66.51v-5.02H49.668zM153.04.688h-6.074l-11.062 15.615L124.842.688h-6.075l16.148 22.795h1.977l2.05-2.892L153.04.688zm-46.56 22.796h6.074L96.406.688h-6.074l2.113 2.981-14.09 19.813h6.074l2.186-3.103h17.667l2.198 3.103v.002zM90.2 15.29l5.224-7.416 5.252 7.416H90.2zm103.396 8.192L177.448.688h-6.074l2.113 2.981-14.091 19.813h6.074l2.316-3.287v.184h17.538l2.198 3.103h6.074v.002zm-22.354-8.192l5.223-7.416 5.253 7.416h-10.476zM25.138 12.07c-1.682-1.07-4.38-1.818-8.092-2.243l-4.88-.604c-1.637-.192-2.834-.472-3.589-.844-.752-.37-1.129-.855-1.129-1.448 0-.805.595-1.475 1.786-2.005 1.19-.53 2.713-.796 4.57-.796 1.9 0 3.722.302 5.47.907 1.175.407 2.19.906 3.048 1.5l3.537-2.661c-1.223-1.166-2.922-2.1-5.095-2.8C18.592.374 16.25.025 13.738.025c-2.446 0-4.613.291-6.502.874-1.89.584-3.364 1.427-4.422 2.531-1.06 1.102-1.589 2.408-1.589 3.913 0 1.868.754 3.31 2.26 4.33 1.508 1.016 3.92 1.716 7.24 2.1l4.915.636c2.008.255 3.477.6 4.404 1.034.929.434 1.393.982 1.393 1.64 0 .826-.59 1.506-1.769 2.036-1.179.53-2.719.796-4.62.796-2.444 0-4.799-.431-7.058-1.29-1.726-.656-3.104-1.451-4.138-2.386L.197 18.93l-.021.029c1.331 1.528 3.341 2.774 6.027 3.74 2.687.965 5.526 1.447 8.518 1.447 2.576 0 4.842-.317 6.797-.953 1.955-.637 3.468-1.528 4.538-2.674 1.068-1.146 1.604-2.461 1.604-3.947 0-1.93-.84-3.432-2.522-4.503" fill="#fff"/></svg>