<svg width="18" height="17" xmlns="http://www.w3.org/2000/svg"><g id="Icons" stroke="none" stroke-width="1" fill="none" fill-rule="evenodd"><g id="Rounded" transform="translate(-273 -4323)"><g id="Toggle" transform="translate(100 4266)"><g transform="translate(170 54)" id="-Round-/-Toggle-/-star"><path id="Path" fill-rule="nonzero" d="M0 0h24v24H0z"/><path d="M12 17.27l4.15 2.51c.76.46 1.69-.22 1.49-1.08l-1.1-4.72 3.67-3.18c.67-.58.31-1.68-.57-1.75l-4.83-.41-1.89-4.46c-.34-.81-1.5-.81-1.84 0L9.19 8.63l-4.83.41c-.88.07-1.24 1.17-.57 1.75l3.67 3.18-1.1 4.72c-.2.86.73 1.54 1.49 1.08l4.15-2.5z" id="🔹-Icon-Color" fill="#1D1D1D"/></g></g></g></g></svg>