<svg width="49" height="49" fill="none" xmlns="http://www.w3.org/2000/svg"><circle cx="24.5" cy="24.5" r="24" stroke="#71E6FF"/><path d="M34.222 17.24h1.826c.6 0 .952.554.952 1.154v4.233c0 .517-.297.962-.803 1.065l-12.245 2.8c-.506.102-.841.548-.841 1.065v3.11M24.5 37.81a.727.727 0 01-.727.727h-1.787a.727.727 0 01-.727-.727v-6.416c0-.402.326-.727.727-.727h1.787c.402 0 .727.325.727.727v6.416z" stroke="#fff" stroke-width="1.4" stroke-miterlimit="10" stroke-linecap="round" stroke-linejoin="round"/><circle opacity=".2" cx="30.5" cy="15.5" r="7.5" fill="#fff"/><path d="M33.76 19.109c0 1.27-1.03 2.298-2.3 2.298H14.3A2.299 2.299 0 0112 19.11V16.3a2.3 2.3 0 012.299-2.3H31.46c1.27 0 2.298 1.03 2.298 2.3v2.81z" stroke="#fff" stroke-width="1.4" stroke-miterlimit="10" stroke-linecap="round" stroke-linejoin="round"/></svg>