<svg version="1.1" id="Icons" xmlns="http://www.w3.org/2000/svg" x="0" y="0" viewBox="0 0 32 32" xml:space="preserve"><path d="M16 0C8.1 0 0 1.7 0 14c0 6.6 2.3 10.7 7 12.6v3.7c0 .7.4 1.3 1 1.6.2.1.5.1.7.1.4 0 .9-.2 1.2-.5l3.6-3.6c.8 0 1.6.1 2.5.1 7.9 0 16-1.7 16-14S23.9 0 16 0zm-.5 10.2c1.8 0 3.3 1.5 3.3 3.3 0 .6-.4 1-1 1s-1-.4-1-1c0-.7-.6-1.3-1.3-1.3-.6 0-1-.4-1-1s.4-1 1-1zm-1-2.1c0-.6.4-1 1-1 3.5 0 6.4 2.9 6.4 6.4 0 .6-.4 1-1 1s-1-.4-1-1c0-2.4-2-4.4-4.4-4.4-.6 0-1-.5-1-1zm8.2 12.4c-.4 1.2-1.9 2.2-3.2 2.4-.3.1-.6.1-1 .1-.8 0-2-.2-4.1-1.1-2.4-1-4.8-3.1-6.7-5.8V16c-.6-.9-1.7-2.6-1.7-4.4 0-2.2 1.1-3.3 1.5-3.8.6-.5 1.3-.8 2.1-.8h.5c.7 0 1.2.2 1.7 1.2l.4.8c.3.8.7 1.7.8 1.8.3.6.3 1.1 0 1.6-.1.3-.3.5-.5.7-.1.2-.2.3-.3.3l-.2.2c.3.5.9 1.4 1.7 2.1 1.2 1.1 2.1 1.4 2.6 1.6.2-.2.4-.6.7-.9l.1-.2c.5-.7 1.3-.9 2.1-.6.4.2 2.6 1.2 2.6 1.2l.2.1c.3.2.7.3.9.7.3.9 0 2.2-.2 2.9zm1.3-6c-.6 0-1-.4-1-1C23 9.4 19.6 6 15.5 6c-.6 0-1-.4-1-1s.4-1 1-1c5.2 0 9.5 4.3 9.5 9.5 0 .6-.4 1-1 1z"/></svg>